G75*
%MOIN*%
%OFA0B0*%
%FSLAX25Y25*%
%IPPOS*%
%LPD*%
%AMOC8*
5,1,8,0,0,1.08239X$1,22.5*
%
%ADD10R,0.05118X0.05906*%
%ADD11R,0.05118X0.06299*%
%ADD12R,0.05906X0.05118*%
%ADD13R,0.04724X0.01181*%
%ADD14R,0.01772X0.01063*%
%ADD15R,0.01063X0.01772*%
%ADD16R,0.03150X0.01181*%
%ADD17R,0.01181X0.03150*%
%ADD18R,0.04724X0.04724*%
D10*
X0078060Y0096800D03*
X0085540Y0096800D03*
X0105560Y0121800D03*
X0113040Y0121800D03*
D11*
X0076612Y0131800D03*
X0068738Y0131800D03*
D12*
X0071800Y0038060D03*
X0071800Y0045540D03*
X0081800Y0042935D03*
X0081800Y0050415D03*
X0091800Y0045540D03*
X0091800Y0038060D03*
D13*
X0068217Y0103285D03*
X0068217Y0105843D03*
X0068217Y0108402D03*
X0068217Y0110961D03*
X0068217Y0113520D03*
X0068217Y0116080D03*
X0068217Y0118639D03*
X0068217Y0121198D03*
X0068217Y0123756D03*
X0068217Y0126315D03*
X0045382Y0126315D03*
X0045382Y0123756D03*
X0045382Y0121198D03*
X0045382Y0118639D03*
X0045382Y0116080D03*
X0045382Y0113520D03*
X0045382Y0110961D03*
X0045382Y0108402D03*
X0045382Y0105843D03*
X0045382Y0103285D03*
D14*
X0079438Y0033769D03*
X0079438Y0031800D03*
X0079438Y0029831D03*
X0084162Y0029831D03*
X0084162Y0031800D03*
X0084162Y0033769D03*
D15*
X0081800Y0034162D03*
X0081800Y0029438D03*
D16*
X0106485Y0132863D03*
X0106485Y0134831D03*
X0106485Y0136800D03*
X0106485Y0138769D03*
X0106485Y0140737D03*
X0117115Y0140737D03*
X0117115Y0138769D03*
X0117115Y0136800D03*
X0117115Y0134831D03*
X0117115Y0132863D03*
D17*
X0113769Y0131780D03*
X0111800Y0131780D03*
X0109831Y0131780D03*
X0109831Y0141820D03*
X0111800Y0141820D03*
X0113769Y0141820D03*
D18*
X0085934Y0086800D03*
X0077666Y0086800D03*
M02*
