G75*
%MOIN*%
%OFA0B0*%
%FSLAX25Y25*%
%IPPOS*%
%LPD*%
%AMOC8*
5,1,8,0,0,1.08239X$1,22.5*
%
%ADD10R,0.16800X0.16800*%
%ADD11R,0.20800X0.20800*%
%ADD12C,0.00500*%
%ADD13C,0.06800*%
%ADD14C,0.08200*%
%ADD15R,0.08200X0.08200*%
%ADD16C,0.04562*%
D10*
X0081800Y0086800D03*
D11*
X0131800Y0086800D03*
X0031800Y0086800D03*
D12*
X0046367Y0086800D02*
X0046590Y0082833D01*
X0047255Y0078915D01*
X0048355Y0075097D01*
X0049876Y0071426D01*
X0051798Y0067948D01*
X0054097Y0064708D01*
X0056745Y0061745D01*
X0059708Y0059097D01*
X0062948Y0056798D01*
X0066426Y0054876D01*
X0070097Y0053355D01*
X0073915Y0052255D01*
X0077833Y0051590D01*
X0081800Y0051367D01*
X0085767Y0051590D01*
X0089685Y0052255D01*
X0093503Y0053355D01*
X0097174Y0054876D01*
X0100652Y0056798D01*
X0103892Y0059097D01*
X0106855Y0061745D01*
X0109503Y0064708D01*
X0111802Y0067948D01*
X0113724Y0071426D01*
X0115245Y0075097D01*
X0116345Y0078915D01*
X0117010Y0082833D01*
X0117233Y0086800D01*
X0117010Y0090767D01*
X0116345Y0094685D01*
X0115245Y0098503D01*
X0113724Y0102174D01*
X0111802Y0105652D01*
X0109503Y0108892D01*
X0106855Y0111855D01*
X0103892Y0114503D01*
X0100652Y0116802D01*
X0097174Y0118724D01*
X0093503Y0120245D01*
X0089685Y0121345D01*
X0085767Y0122010D01*
X0081800Y0122233D01*
X0077833Y0122010D01*
X0073915Y0121345D01*
X0070097Y0120245D01*
X0066426Y0118724D01*
X0062948Y0116802D01*
X0059708Y0114503D01*
X0056745Y0111855D01*
X0054097Y0108892D01*
X0051798Y0105652D01*
X0049876Y0102174D01*
X0048355Y0098503D01*
X0047255Y0094685D01*
X0046590Y0090767D01*
X0046367Y0086800D01*
X0046380Y0086562D02*
X0117220Y0086562D01*
X0117218Y0087060D02*
X0046382Y0087060D01*
X0046410Y0087559D02*
X0117190Y0087559D01*
X0117162Y0088057D02*
X0046438Y0088057D01*
X0046466Y0088556D02*
X0117134Y0088556D01*
X0117106Y0089054D02*
X0046494Y0089054D01*
X0046522Y0089553D02*
X0117078Y0089553D01*
X0117050Y0090051D02*
X0046550Y0090051D01*
X0046578Y0090550D02*
X0117022Y0090550D01*
X0116963Y0091048D02*
X0046637Y0091048D01*
X0046722Y0091547D02*
X0116878Y0091547D01*
X0116793Y0092045D02*
X0046807Y0092045D01*
X0046892Y0092544D02*
X0116708Y0092544D01*
X0116624Y0093042D02*
X0046976Y0093042D01*
X0047061Y0093541D02*
X0116539Y0093541D01*
X0116454Y0094039D02*
X0047146Y0094039D01*
X0047230Y0094538D02*
X0116370Y0094538D01*
X0116243Y0095037D02*
X0047357Y0095037D01*
X0047500Y0095535D02*
X0116100Y0095535D01*
X0115956Y0096034D02*
X0047644Y0096034D01*
X0047788Y0096532D02*
X0115812Y0096532D01*
X0115669Y0097031D02*
X0047931Y0097031D01*
X0048075Y0097529D02*
X0115525Y0097529D01*
X0115382Y0098028D02*
X0048218Y0098028D01*
X0048365Y0098526D02*
X0115235Y0098526D01*
X0115029Y0099025D02*
X0048571Y0099025D01*
X0048778Y0099523D02*
X0114822Y0099523D01*
X0114616Y0100022D02*
X0048984Y0100022D01*
X0049191Y0100520D02*
X0114409Y0100520D01*
X0114203Y0101019D02*
X0049397Y0101019D01*
X0049604Y0101517D02*
X0113996Y0101517D01*
X0113790Y0102016D02*
X0049810Y0102016D01*
X0050064Y0102514D02*
X0113536Y0102514D01*
X0113260Y0103013D02*
X0050340Y0103013D01*
X0050615Y0103511D02*
X0112985Y0103511D01*
X0112709Y0104010D02*
X0050891Y0104010D01*
X0051166Y0104508D02*
X0112434Y0104508D01*
X0112158Y0105007D02*
X0051442Y0105007D01*
X0051717Y0105505D02*
X0111883Y0105505D01*
X0111552Y0106004D02*
X0052048Y0106004D01*
X0052402Y0106502D02*
X0111198Y0106502D01*
X0110845Y0107001D02*
X0052755Y0107001D01*
X0053109Y0107499D02*
X0110491Y0107499D01*
X0110137Y0107998D02*
X0053463Y0107998D01*
X0053816Y0108496D02*
X0109784Y0108496D01*
X0109411Y0108995D02*
X0054189Y0108995D01*
X0054635Y0109493D02*
X0108965Y0109493D01*
X0108520Y0109992D02*
X0055080Y0109992D01*
X0055526Y0110490D02*
X0108074Y0110490D01*
X0107629Y0110989D02*
X0055971Y0110989D01*
X0056417Y0111487D02*
X0107183Y0111487D01*
X0106708Y0111986D02*
X0056892Y0111986D01*
X0057449Y0112484D02*
X0106151Y0112484D01*
X0105593Y0112983D02*
X0058007Y0112983D01*
X0058565Y0113481D02*
X0105035Y0113481D01*
X0104477Y0113980D02*
X0059123Y0113980D01*
X0059681Y0114478D02*
X0103919Y0114478D01*
X0103224Y0114977D02*
X0060376Y0114977D01*
X0061079Y0115475D02*
X0102521Y0115475D01*
X0101819Y0115974D02*
X0061781Y0115974D01*
X0062484Y0116472D02*
X0101116Y0116472D01*
X0100346Y0116971D02*
X0063254Y0116971D01*
X0064156Y0117470D02*
X0099444Y0117470D01*
X0098542Y0117968D02*
X0065058Y0117968D01*
X0065960Y0118467D02*
X0097640Y0118467D01*
X0096592Y0118965D02*
X0067008Y0118965D01*
X0068211Y0119464D02*
X0095389Y0119464D01*
X0094185Y0119962D02*
X0069415Y0119962D01*
X0070847Y0120461D02*
X0092753Y0120461D01*
X0091023Y0120959D02*
X0072577Y0120959D01*
X0074580Y0121458D02*
X0089020Y0121458D01*
X0086086Y0121956D02*
X0077514Y0121956D01*
X0046408Y0086063D02*
X0117192Y0086063D01*
X0117164Y0085565D02*
X0046436Y0085565D01*
X0046464Y0085066D02*
X0117136Y0085066D01*
X0117108Y0084568D02*
X0046492Y0084568D01*
X0046520Y0084069D02*
X0117080Y0084069D01*
X0117052Y0083571D02*
X0046548Y0083571D01*
X0046576Y0083072D02*
X0117024Y0083072D01*
X0116966Y0082574D02*
X0046634Y0082574D01*
X0046718Y0082075D02*
X0116882Y0082075D01*
X0116797Y0081577D02*
X0046803Y0081577D01*
X0046888Y0081078D02*
X0116712Y0081078D01*
X0116627Y0080580D02*
X0046973Y0080580D01*
X0047057Y0080081D02*
X0116543Y0080081D01*
X0116458Y0079583D02*
X0047142Y0079583D01*
X0047227Y0079084D02*
X0116373Y0079084D01*
X0116250Y0078586D02*
X0047350Y0078586D01*
X0047494Y0078087D02*
X0116106Y0078087D01*
X0115962Y0077589D02*
X0047638Y0077589D01*
X0047781Y0077090D02*
X0115819Y0077090D01*
X0115675Y0076592D02*
X0047925Y0076592D01*
X0048068Y0076093D02*
X0115532Y0076093D01*
X0115388Y0075595D02*
X0048212Y0075595D01*
X0048356Y0075096D02*
X0115244Y0075096D01*
X0115038Y0074598D02*
X0048562Y0074598D01*
X0048769Y0074099D02*
X0114831Y0074099D01*
X0114625Y0073601D02*
X0048975Y0073601D01*
X0049182Y0073102D02*
X0114418Y0073102D01*
X0114212Y0072603D02*
X0049388Y0072603D01*
X0049595Y0072105D02*
X0114005Y0072105D01*
X0113799Y0071606D02*
X0049801Y0071606D01*
X0050052Y0071108D02*
X0113548Y0071108D01*
X0113273Y0070609D02*
X0050327Y0070609D01*
X0050603Y0070111D02*
X0112997Y0070111D01*
X0112722Y0069612D02*
X0050878Y0069612D01*
X0051154Y0069114D02*
X0112446Y0069114D01*
X0112171Y0068615D02*
X0051429Y0068615D01*
X0051705Y0068117D02*
X0111895Y0068117D01*
X0111568Y0067618D02*
X0052032Y0067618D01*
X0052386Y0067120D02*
X0111214Y0067120D01*
X0110860Y0066621D02*
X0052740Y0066621D01*
X0053093Y0066123D02*
X0110507Y0066123D01*
X0110153Y0065624D02*
X0053447Y0065624D01*
X0053801Y0065126D02*
X0109799Y0065126D01*
X0109431Y0064627D02*
X0054169Y0064627D01*
X0054615Y0064129D02*
X0108985Y0064129D01*
X0108540Y0063630D02*
X0055060Y0063630D01*
X0055506Y0063132D02*
X0108094Y0063132D01*
X0107649Y0062633D02*
X0055951Y0062633D01*
X0056397Y0062135D02*
X0107203Y0062135D01*
X0106733Y0061636D02*
X0056867Y0061636D01*
X0057425Y0061138D02*
X0106175Y0061138D01*
X0105618Y0060639D02*
X0057982Y0060639D01*
X0058540Y0060141D02*
X0105060Y0060141D01*
X0104502Y0059642D02*
X0059098Y0059642D01*
X0059656Y0059144D02*
X0103944Y0059144D01*
X0103255Y0058645D02*
X0060345Y0058645D01*
X0061048Y0058147D02*
X0102552Y0058147D01*
X0101850Y0057648D02*
X0061750Y0057648D01*
X0062453Y0057150D02*
X0101147Y0057150D01*
X0100386Y0056651D02*
X0063214Y0056651D01*
X0064116Y0056153D02*
X0099484Y0056153D01*
X0098582Y0055654D02*
X0065018Y0055654D01*
X0065920Y0055156D02*
X0097680Y0055156D01*
X0096646Y0054657D02*
X0066954Y0054657D01*
X0068158Y0054159D02*
X0095442Y0054159D01*
X0094239Y0053660D02*
X0069361Y0053660D01*
X0070770Y0053162D02*
X0092830Y0053162D01*
X0091100Y0052663D02*
X0072500Y0052663D01*
X0074450Y0052165D02*
X0089150Y0052165D01*
X0086216Y0051666D02*
X0077384Y0051666D01*
D13*
X0029800Y0014300D02*
X0023800Y0014300D01*
X0023800Y0024300D02*
X0029800Y0024300D01*
X0048800Y0024300D02*
X0054800Y0024300D01*
X0054800Y0014300D02*
X0048800Y0014300D01*
X0048800Y0034300D02*
X0054800Y0034300D01*
X0054800Y0044300D02*
X0048800Y0044300D01*
X0108800Y0044300D02*
X0114800Y0044300D01*
X0122900Y0042000D02*
X0122900Y0036000D01*
X0114800Y0034300D02*
X0108800Y0034300D01*
X0108800Y0024300D02*
X0114800Y0024300D01*
X0114800Y0014300D02*
X0108800Y0014300D01*
X0133800Y0014300D02*
X0139800Y0014300D01*
X0139800Y0024300D02*
X0133800Y0024300D01*
X0140700Y0036000D02*
X0140700Y0042000D01*
X0140700Y0061600D02*
X0140700Y0067600D01*
X0122900Y0067600D02*
X0122900Y0061600D01*
D14*
X0095050Y0126800D03*
X0096050Y0136800D03*
X0095050Y0146800D03*
X0076800Y0140800D03*
X0066800Y0141800D03*
X0056800Y0140800D03*
X0046800Y0141800D03*
X0036800Y0140800D03*
X0026800Y0141800D03*
X0036800Y0156300D03*
X0026800Y0157300D03*
X0046800Y0157300D03*
X0056800Y0156300D03*
X0066800Y0157300D03*
X0024800Y0114300D03*
X0023800Y0124300D03*
X0023800Y0104300D03*
X0135050Y0146800D03*
X0136050Y0136800D03*
X0136050Y0156800D03*
D15*
X0135050Y0126800D03*
X0096050Y0156800D03*
D16*
X0106800Y0156800D03*
X0116800Y0115050D03*
X0124300Y0114300D03*
X0130550Y0113050D03*
X0117987Y0102316D03*
X0063050Y0044925D03*
X0031800Y0056800D03*
X0061800Y0120550D03*
X0059300Y0128050D03*
X0053050Y0124300D03*
X0041800Y0133050D03*
M02*
