%
M48
M72
T01C0.0236
T02C0.0400
%
T01
X3180Y5680
X6305Y4493
X11799Y10232
X11680Y11505
X12430Y11430
X13055Y11305
X10680Y15680
X6180Y12055
X5930Y12805
X5305Y12430
X4180Y13305
T02
X2680Y1430
X2680Y2430
X5180Y2430
X5180Y1430
X5180Y3430
X5180Y4430
X2380Y10430
X2480Y11430
X2380Y12430
X3680Y14080
X2680Y14180
X3680Y15630
X2680Y15730
X4680Y15730
X5680Y15630
X6680Y15730
X6680Y14180
X5680Y14080
X4680Y14180
X7680Y14080
X9505Y14680
X9605Y13680
X9505Y12680
X9605Y15680
X13505Y14680
X13605Y13680
X13505Y12680
X13605Y15680
X14070Y6460
X12290Y6460
X11180Y4430
X11180Y3430
X11180Y2430
X11180Y1430
X12290Y3900
X13680Y2430
X13680Y1430
X14070Y3900
M30
