G75*
%MOIN*%
%OFA0B0*%
%FSLAX25Y25*%
%IPPOS*%
%LPD*%
%AMOC8*
5,1,8,0,0,1.08239X$1,22.5*
%
%ADD10C,0.00500*%
D10*
X0061800Y0046800D02*
X0041800Y0067800D01*
X0041800Y0076800D01*
X0021800Y0076800D01*
X0021800Y0096800D01*
X0041800Y0096800D01*
X0041800Y0124800D01*
X0058800Y0124800D01*
X0068800Y0112800D01*
X0093800Y0112800D01*
X0102800Y0124800D01*
X0121800Y0124800D01*
X0121800Y0096800D01*
X0141800Y0096800D01*
X0141800Y0076800D01*
X0121800Y0076800D01*
X0121800Y0068800D01*
X0100800Y0046800D01*
X0061800Y0046800D01*
X0028194Y0087800D02*
X0028196Y0087920D01*
X0028202Y0088040D01*
X0028212Y0088159D01*
X0028226Y0088278D01*
X0028244Y0088397D01*
X0028265Y0088515D01*
X0028291Y0088632D01*
X0028321Y0088748D01*
X0028354Y0088863D01*
X0028391Y0088977D01*
X0028432Y0089089D01*
X0028477Y0089201D01*
X0028526Y0089310D01*
X0028578Y0089418D01*
X0028633Y0089525D01*
X0028692Y0089629D01*
X0028755Y0089731D01*
X0028821Y0089831D01*
X0028890Y0089929D01*
X0028962Y0090025D01*
X0029038Y0090118D01*
X0029116Y0090208D01*
X0029198Y0090296D01*
X0029282Y0090381D01*
X0029369Y0090464D01*
X0029459Y0090543D01*
X0029552Y0090619D01*
X0029647Y0090692D01*
X0029744Y0090762D01*
X0029844Y0090829D01*
X0029945Y0090892D01*
X0030049Y0090952D01*
X0030155Y0091009D01*
X0030262Y0091062D01*
X0030372Y0091111D01*
X0030483Y0091157D01*
X0030595Y0091199D01*
X0030709Y0091237D01*
X0030823Y0091271D01*
X0030939Y0091302D01*
X0031056Y0091328D01*
X0031174Y0091351D01*
X0031292Y0091370D01*
X0031411Y0091385D01*
X0031531Y0091396D01*
X0031650Y0091403D01*
X0031770Y0091406D01*
X0031890Y0091405D01*
X0032010Y0091400D01*
X0032129Y0091391D01*
X0032248Y0091378D01*
X0032367Y0091361D01*
X0032485Y0091340D01*
X0032602Y0091316D01*
X0032719Y0091287D01*
X0032834Y0091255D01*
X0032948Y0091218D01*
X0033061Y0091178D01*
X0033173Y0091134D01*
X0033283Y0091087D01*
X0033392Y0091036D01*
X0033498Y0090981D01*
X0033603Y0090923D01*
X0033706Y0090861D01*
X0033807Y0090796D01*
X0033905Y0090728D01*
X0034001Y0090656D01*
X0034095Y0090582D01*
X0034186Y0090504D01*
X0034275Y0090423D01*
X0034360Y0090339D01*
X0034443Y0090253D01*
X0034523Y0090163D01*
X0034601Y0090072D01*
X0034674Y0089977D01*
X0034745Y0089881D01*
X0034813Y0089782D01*
X0034877Y0089680D01*
X0034938Y0089577D01*
X0034995Y0089472D01*
X0035049Y0089365D01*
X0035099Y0089256D01*
X0035146Y0089145D01*
X0035189Y0089033D01*
X0035228Y0088920D01*
X0035263Y0088805D01*
X0035294Y0088690D01*
X0035322Y0088573D01*
X0035346Y0088456D01*
X0035366Y0088337D01*
X0035382Y0088219D01*
X0035394Y0088099D01*
X0035402Y0087980D01*
X0035406Y0087860D01*
X0035406Y0087740D01*
X0035402Y0087620D01*
X0035394Y0087501D01*
X0035382Y0087381D01*
X0035366Y0087263D01*
X0035346Y0087144D01*
X0035322Y0087027D01*
X0035294Y0086910D01*
X0035263Y0086795D01*
X0035228Y0086680D01*
X0035189Y0086567D01*
X0035146Y0086455D01*
X0035099Y0086344D01*
X0035049Y0086235D01*
X0034995Y0086128D01*
X0034938Y0086023D01*
X0034877Y0085920D01*
X0034813Y0085818D01*
X0034745Y0085719D01*
X0034674Y0085623D01*
X0034601Y0085528D01*
X0034523Y0085437D01*
X0034443Y0085347D01*
X0034360Y0085261D01*
X0034275Y0085177D01*
X0034186Y0085096D01*
X0034095Y0085018D01*
X0034001Y0084944D01*
X0033905Y0084872D01*
X0033807Y0084804D01*
X0033706Y0084739D01*
X0033603Y0084677D01*
X0033498Y0084619D01*
X0033392Y0084564D01*
X0033283Y0084513D01*
X0033173Y0084466D01*
X0033061Y0084422D01*
X0032948Y0084382D01*
X0032834Y0084345D01*
X0032719Y0084313D01*
X0032602Y0084284D01*
X0032485Y0084260D01*
X0032367Y0084239D01*
X0032248Y0084222D01*
X0032129Y0084209D01*
X0032010Y0084200D01*
X0031890Y0084195D01*
X0031770Y0084194D01*
X0031650Y0084197D01*
X0031531Y0084204D01*
X0031411Y0084215D01*
X0031292Y0084230D01*
X0031174Y0084249D01*
X0031056Y0084272D01*
X0030939Y0084298D01*
X0030823Y0084329D01*
X0030709Y0084363D01*
X0030595Y0084401D01*
X0030483Y0084443D01*
X0030372Y0084489D01*
X0030262Y0084538D01*
X0030155Y0084591D01*
X0030049Y0084648D01*
X0029945Y0084708D01*
X0029844Y0084771D01*
X0029744Y0084838D01*
X0029647Y0084908D01*
X0029552Y0084981D01*
X0029459Y0085057D01*
X0029369Y0085136D01*
X0029282Y0085219D01*
X0029198Y0085304D01*
X0029116Y0085392D01*
X0029038Y0085482D01*
X0028962Y0085575D01*
X0028890Y0085671D01*
X0028821Y0085769D01*
X0028755Y0085869D01*
X0028692Y0085971D01*
X0028633Y0086075D01*
X0028578Y0086182D01*
X0028526Y0086290D01*
X0028477Y0086399D01*
X0028432Y0086511D01*
X0028391Y0086623D01*
X0028354Y0086737D01*
X0028321Y0086852D01*
X0028291Y0086968D01*
X0028265Y0087085D01*
X0028244Y0087203D01*
X0028226Y0087322D01*
X0028212Y0087441D01*
X0028202Y0087560D01*
X0028196Y0087680D01*
X0028194Y0087800D01*
X0129194Y0086800D02*
X0129196Y0086920D01*
X0129202Y0087040D01*
X0129212Y0087159D01*
X0129226Y0087278D01*
X0129244Y0087397D01*
X0129265Y0087515D01*
X0129291Y0087632D01*
X0129321Y0087748D01*
X0129354Y0087863D01*
X0129391Y0087977D01*
X0129432Y0088089D01*
X0129477Y0088201D01*
X0129526Y0088310D01*
X0129578Y0088418D01*
X0129633Y0088525D01*
X0129692Y0088629D01*
X0129755Y0088731D01*
X0129821Y0088831D01*
X0129890Y0088929D01*
X0129962Y0089025D01*
X0130038Y0089118D01*
X0130116Y0089208D01*
X0130198Y0089296D01*
X0130282Y0089381D01*
X0130369Y0089464D01*
X0130459Y0089543D01*
X0130552Y0089619D01*
X0130647Y0089692D01*
X0130744Y0089762D01*
X0130844Y0089829D01*
X0130945Y0089892D01*
X0131049Y0089952D01*
X0131155Y0090009D01*
X0131262Y0090062D01*
X0131372Y0090111D01*
X0131483Y0090157D01*
X0131595Y0090199D01*
X0131709Y0090237D01*
X0131823Y0090271D01*
X0131939Y0090302D01*
X0132056Y0090328D01*
X0132174Y0090351D01*
X0132292Y0090370D01*
X0132411Y0090385D01*
X0132531Y0090396D01*
X0132650Y0090403D01*
X0132770Y0090406D01*
X0132890Y0090405D01*
X0133010Y0090400D01*
X0133129Y0090391D01*
X0133248Y0090378D01*
X0133367Y0090361D01*
X0133485Y0090340D01*
X0133602Y0090316D01*
X0133719Y0090287D01*
X0133834Y0090255D01*
X0133948Y0090218D01*
X0134061Y0090178D01*
X0134173Y0090134D01*
X0134283Y0090087D01*
X0134392Y0090036D01*
X0134498Y0089981D01*
X0134603Y0089923D01*
X0134706Y0089861D01*
X0134807Y0089796D01*
X0134905Y0089728D01*
X0135001Y0089656D01*
X0135095Y0089582D01*
X0135186Y0089504D01*
X0135275Y0089423D01*
X0135360Y0089339D01*
X0135443Y0089253D01*
X0135523Y0089163D01*
X0135601Y0089072D01*
X0135674Y0088977D01*
X0135745Y0088881D01*
X0135813Y0088782D01*
X0135877Y0088680D01*
X0135938Y0088577D01*
X0135995Y0088472D01*
X0136049Y0088365D01*
X0136099Y0088256D01*
X0136146Y0088145D01*
X0136189Y0088033D01*
X0136228Y0087920D01*
X0136263Y0087805D01*
X0136294Y0087690D01*
X0136322Y0087573D01*
X0136346Y0087456D01*
X0136366Y0087337D01*
X0136382Y0087219D01*
X0136394Y0087099D01*
X0136402Y0086980D01*
X0136406Y0086860D01*
X0136406Y0086740D01*
X0136402Y0086620D01*
X0136394Y0086501D01*
X0136382Y0086381D01*
X0136366Y0086263D01*
X0136346Y0086144D01*
X0136322Y0086027D01*
X0136294Y0085910D01*
X0136263Y0085795D01*
X0136228Y0085680D01*
X0136189Y0085567D01*
X0136146Y0085455D01*
X0136099Y0085344D01*
X0136049Y0085235D01*
X0135995Y0085128D01*
X0135938Y0085023D01*
X0135877Y0084920D01*
X0135813Y0084818D01*
X0135745Y0084719D01*
X0135674Y0084623D01*
X0135601Y0084528D01*
X0135523Y0084437D01*
X0135443Y0084347D01*
X0135360Y0084261D01*
X0135275Y0084177D01*
X0135186Y0084096D01*
X0135095Y0084018D01*
X0135001Y0083944D01*
X0134905Y0083872D01*
X0134807Y0083804D01*
X0134706Y0083739D01*
X0134603Y0083677D01*
X0134498Y0083619D01*
X0134392Y0083564D01*
X0134283Y0083513D01*
X0134173Y0083466D01*
X0134061Y0083422D01*
X0133948Y0083382D01*
X0133834Y0083345D01*
X0133719Y0083313D01*
X0133602Y0083284D01*
X0133485Y0083260D01*
X0133367Y0083239D01*
X0133248Y0083222D01*
X0133129Y0083209D01*
X0133010Y0083200D01*
X0132890Y0083195D01*
X0132770Y0083194D01*
X0132650Y0083197D01*
X0132531Y0083204D01*
X0132411Y0083215D01*
X0132292Y0083230D01*
X0132174Y0083249D01*
X0132056Y0083272D01*
X0131939Y0083298D01*
X0131823Y0083329D01*
X0131709Y0083363D01*
X0131595Y0083401D01*
X0131483Y0083443D01*
X0131372Y0083489D01*
X0131262Y0083538D01*
X0131155Y0083591D01*
X0131049Y0083648D01*
X0130945Y0083708D01*
X0130844Y0083771D01*
X0130744Y0083838D01*
X0130647Y0083908D01*
X0130552Y0083981D01*
X0130459Y0084057D01*
X0130369Y0084136D01*
X0130282Y0084219D01*
X0130198Y0084304D01*
X0130116Y0084392D01*
X0130038Y0084482D01*
X0129962Y0084575D01*
X0129890Y0084671D01*
X0129821Y0084769D01*
X0129755Y0084869D01*
X0129692Y0084971D01*
X0129633Y0085075D01*
X0129578Y0085182D01*
X0129526Y0085290D01*
X0129477Y0085399D01*
X0129432Y0085511D01*
X0129391Y0085623D01*
X0129354Y0085737D01*
X0129321Y0085852D01*
X0129291Y0085968D01*
X0129265Y0086085D01*
X0129244Y0086203D01*
X0129226Y0086322D01*
X0129212Y0086441D01*
X0129202Y0086560D01*
X0129196Y0086680D01*
X0129194Y0086800D01*
M02*
