G04 ================== begin FILE IDENTIFICATION RECORD ==================*
G04 Layout Name:  C:/work/cadence/ADI/adxl362/worklib/adxl362z/physical/xl362z.brd*
G04 Film Name:    bottom*
G04 File Format:  Gerber RS274X*
G04 File Origin:  15.7-s011*
G04 Origin Date:  Fri Oct 28 17:35:41 2011*
G04 *
G04 Layer:  VIA CLASS/BOTTOM*
G04 Layer:  USER PART NUMBER/DISPLAY_BOTTOM*
G04 Layer:  PIN/BOTTOM*
G04 Layer:  ETCH/BOTTOM*
G04 Layer:  BOARD GEOMETRY/LAYER_2*
G04 Layer:  BOARD GEOMETRY/PCB_NAME_BOT*
G04 Layer:  BOARD GEOMETRY/CUT_MARKS*
G04 *
G04 Offset:    (0.0 0.0)*
G04 Mirror:    No*
G04 Mode:      Positive*
G04 Rotation:  0*
G04 FullContactRelief:  No*
G04 UndefLineWidth:     5.0*
G04 ================== end FILE IDENTIFICATION RECORD ====================*
%FSLAX55Y55*MOIN*%
%IR0*IPPOS*OFA0.00000B0.00000*MIA0B0*SFA1.00000B1.00000*%
%ADD11C,.15*%
%ADD12C,.02*%
%ADD10C,.075*%
%ADD13C,.005*%
%ADD14C,.008*%
%ADD15C,.013*%
%ADD16C,.05*%
G75*
%LPD*%
G75*
G54D10*
X425000Y720000D03*
Y740000D03*
Y750000D03*
Y730000D03*
Y760000D03*
X455000Y720000D03*
Y740000D03*
Y750000D03*
Y730000D03*
Y760000D03*
G54D11*
X411000Y711000D03*
Y769000D03*
X469000Y711000D03*
Y769000D03*
G54D12*
G01X404160Y702260D02*
X402260Y704160D01*
G01D02*
Y707760D01*
G01D02*
X402600Y706970D01*
G01D02*
X403000Y706210D01*
G01D02*
X403480Y705490D01*
G01D02*
X404020Y704820D01*
G01D02*
X404620Y704200D01*
G01D02*
X405270Y703640D01*
G01D02*
X405980Y703150D01*
G01D02*
X406720Y702720D01*
G01D02*
X407760Y702260D01*
G01D02*
X404160D01*
G01X414240D02*
X415030Y702600D01*
G01D02*
X415790Y703000D01*
G01D02*
X416510Y703480D01*
G01D02*
X417180Y704020D01*
G01D02*
X417800Y704620D01*
G01D02*
X418350Y705270D01*
G01D02*
X418850Y705980D01*
G01D02*
X419280Y706720D01*
G01D02*
X419640Y707510D01*
G01D02*
X419930Y708320D01*
G01D02*
X420140Y709150D01*
G01D02*
X420270Y710000D01*
G01D02*
X420320Y710860D01*
G01D02*
X420290Y711720D01*
G01D02*
X420190Y712580D01*
G01D02*
X420000Y713420D01*
G01D02*
X419740Y714240D01*
G01D02*
X419400Y715030D01*
G01D02*
X418990Y715790D01*
G01D02*
X418520Y716510D01*
G01D02*
X417980Y717180D01*
G01D02*
X417380Y717800D01*
G01D02*
X416720Y718350D01*
G01D02*
X416020Y718850D01*
G01D02*
X415280Y719280D01*
G01D02*
X414490Y719640D01*
G01D02*
X413680Y719930D01*
G01D02*
X412850Y720140D01*
G01D02*
X411990Y720270D01*
G01D02*
X411140Y720320D01*
G01D02*
X410270Y720290D01*
G01D02*
X409420Y720190D01*
G01D02*
X408580Y720000D01*
G01D02*
X407760Y719740D01*
G01D02*
X406970Y719400D01*
G01D02*
X406210Y718990D01*
G01D02*
X405490Y718520D01*
G01D02*
X404820Y717980D01*
G01D02*
X404200Y717380D01*
G01D02*
X403640Y716720D01*
G01D02*
X403150Y716020D01*
G01D02*
X402720Y715280D01*
G01D02*
X402260Y714240D01*
G01D02*
Y765760D01*
G01D02*
X402600Y764970D01*
G01D02*
X403000Y764210D01*
G01D02*
X403480Y763490D01*
G01D02*
X404020Y762820D01*
G01D02*
X404620Y762200D01*
G01D02*
X405270Y761650D01*
G01D02*
X405980Y761150D01*
G01D02*
X406720Y760720D01*
G01D02*
X407510Y760360D01*
G01D02*
X408320Y760070D01*
G01D02*
X409150Y759860D01*
G01D02*
X410000Y759730D01*
G01D02*
X410860Y759680D01*
G01D02*
X411720Y759710D01*
G01D02*
X412580Y759810D01*
G01D02*
X413420Y760000D01*
G01D02*
X414240Y760260D01*
G01D02*
X415030Y760600D01*
G01D02*
X415790Y761010D01*
G01D02*
X416510Y761480D01*
G01D02*
X417180Y762020D01*
G01D02*
X417800Y762620D01*
G01D02*
X418350Y763280D01*
G01D02*
X418850Y763980D01*
G01D02*
X419280Y764720D01*
G01D02*
X419640Y765510D01*
G01D02*
X419930Y766320D01*
G01D02*
X420140Y767150D01*
G01D02*
X420270Y768010D01*
G01D02*
X420320Y768860D01*
G01D02*
X420290Y769730D01*
G01D02*
X420190Y770580D01*
G01D02*
X420000Y771420D01*
G01D02*
X419740Y772240D01*
G01D02*
X419400Y773030D01*
G01D02*
X418990Y773790D01*
G01D02*
X418520Y774510D01*
G01D02*
X417980Y775180D01*
G01D02*
X417380Y775800D01*
G01D02*
X416720Y776360D01*
G01D02*
X416020Y776850D01*
G01D02*
X415280Y777280D01*
G01D02*
X414240Y777740D01*
G01D02*
X465760D01*
G01D02*
X464970Y777400D01*
G01D02*
X464210Y777000D01*
G01D02*
X463490Y776520D01*
G01D02*
X462820Y775980D01*
G01D02*
X462200Y775380D01*
G01D02*
X461650Y774730D01*
G01D02*
X461150Y774020D01*
G01D02*
X460720Y773280D01*
G01D02*
X460360Y772490D01*
G01D02*
X460070Y771680D01*
G01D02*
X459860Y770850D01*
G01D02*
X459730Y770000D01*
G01D02*
X459680Y769140D01*
G01D02*
X459710Y768280D01*
G01D02*
X459810Y767420D01*
G01D02*
X460000Y766580D01*
G01D02*
X460260Y765760D01*
G01D02*
X460600Y764970D01*
G01D02*
X461010Y764210D01*
G01D02*
X461480Y763490D01*
G01D02*
X462020Y762820D01*
G01D02*
X462620Y762200D01*
G01D02*
X463280Y761650D01*
G01D02*
X463980Y761150D01*
G01D02*
X464720Y760720D01*
G01D02*
X465510Y760360D01*
G01D02*
X466320Y760070D01*
G01D02*
X467150Y759860D01*
G01D02*
X468010Y759730D01*
G01D02*
X468860Y759680D01*
G01D02*
X469730Y759710D01*
G01D02*
X470580Y759810D01*
G01D02*
X471420Y760000D01*
G01D02*
X472240Y760260D01*
G01D02*
X473030Y760600D01*
G01D02*
X473790Y761010D01*
G01D02*
X474510Y761480D01*
G01D02*
X475180Y762020D01*
G01D02*
X475800Y762620D01*
G01D02*
X476360Y763280D01*
G01D02*
X476850Y763980D01*
G01D02*
X477280Y764720D01*
G01D02*
X477740Y765760D01*
G01D02*
Y714240D01*
G01D02*
X477400Y715030D01*
G01D02*
X477000Y715790D01*
G01D02*
X476520Y716510D01*
G01D02*
X475980Y717180D01*
G01D02*
X475380Y717800D01*
G01D02*
X474730Y718350D01*
G01D02*
X474020Y718850D01*
G01D02*
X473280Y719280D01*
G01D02*
X472490Y719640D01*
G01D02*
X471680Y719930D01*
G01D02*
X470850Y720140D01*
G01D02*
X470000Y720270D01*
G01D02*
X469140Y720320D01*
G01D02*
X468280Y720290D01*
G01D02*
X467420Y720190D01*
G01D02*
X466580Y720000D01*
G01D02*
X465760Y719740D01*
G01D02*
X464970Y719400D01*
G01D02*
X464210Y718990D01*
G01D02*
X463490Y718520D01*
G01D02*
X462820Y717980D01*
G01D02*
X462200Y717380D01*
G01D02*
X461650Y716720D01*
G01D02*
X461150Y716020D01*
G01D02*
X460720Y715280D01*
G01D02*
X460360Y714490D01*
G01D02*
X460070Y713680D01*
G01D02*
X459860Y712850D01*
G01D02*
X459730Y711990D01*
G01D02*
X459680Y711140D01*
G01D02*
X459710Y710270D01*
G01D02*
X459810Y709420D01*
G01D02*
X460000Y708580D01*
G01D02*
X460260Y707760D01*
G01D02*
X460600Y706970D01*
G01D02*
X461010Y706210D01*
G01D02*
X461480Y705490D01*
G01D02*
X462020Y704820D01*
G01D02*
X462620Y704200D01*
G01D02*
X463280Y703640D01*
G01D02*
X463980Y703150D01*
G01D02*
X464720Y702720D01*
G01D02*
X465760Y702260D01*
G01D02*
X414240D01*
G01X457450Y725000D02*
X458030Y724670D01*
G01D02*
X458570Y724270D01*
G01D02*
X459060Y723810D01*
G01D02*
X459490Y723290D01*
G01D02*
X459860Y722720D01*
G01D02*
X460150Y722120D01*
G01D02*
X460370Y721480D01*
G01D02*
X460510Y720820D01*
G01D02*
X460570Y720150D01*
G01D02*
X460540Y719480D01*
G01D02*
X460440Y718820D01*
G01D02*
X460260Y718170D01*
G01D02*
X460000Y717550D01*
G01D02*
X459670Y716960D01*
G01D02*
X459270Y716420D01*
G01D02*
X458810Y715930D01*
G01D02*
X458290Y715500D01*
G01D02*
X457720Y715140D01*
G01D02*
X457120Y714850D01*
G01D02*
X456480Y714630D01*
G01D02*
X455820Y714490D01*
G01D02*
X455150Y714430D01*
G01D02*
X454480Y714450D01*
G01D02*
X453820Y714560D01*
G01D02*
X453170Y714740D01*
G01D02*
X452550Y715000D01*
G01D02*
X451960Y715330D01*
G01D02*
X451420Y715730D01*
G01D02*
X450930Y716190D01*
G01D02*
X450500Y716710D01*
G01D02*
X450140Y717270D01*
G01D02*
X449850Y717880D01*
G01D02*
X449630Y718520D01*
G01D02*
X449490Y719170D01*
G01D02*
X449430Y719840D01*
G01D02*
X449450Y720520D01*
G01D02*
X449550Y721180D01*
G01D02*
X449660Y721590D01*
G01D02*
X444820D01*
G01D02*
X444410Y721330D01*
G01D02*
X443960Y721140D01*
G01D02*
X443490Y721020D01*
G01D02*
X443010Y720980D01*
G01D02*
X442520Y721020D01*
G01D02*
X442050Y721130D01*
G01D02*
X441500Y721380D01*
G01D02*
X441060Y721170D01*
G01D02*
X440590Y721040D01*
G01D02*
X440110Y720980D01*
G01D02*
X439630Y721000D01*
G01D02*
X439150Y721100D01*
G01D02*
X438500Y721380D01*
G01D02*
X438060Y721170D01*
G01D02*
X437590Y721040D01*
G01D02*
X437110Y720980D01*
G01D02*
X436620Y721000D01*
G01D02*
X436150Y721100D01*
G01D02*
X435690Y721280D01*
G01D02*
X435270Y721520D01*
G01D02*
X434900Y721830D01*
G01D02*
X434580Y722190D01*
G01D02*
X434320Y722610D01*
G01D02*
X434130Y723050D01*
G01D02*
X434020Y723530D01*
G01D02*
X433980Y724010D01*
G01D02*
X434020Y724490D01*
G01D02*
X434140Y724970D01*
G01D02*
X434330Y725410D01*
G01D02*
X434590Y725820D01*
G01D02*
X434910Y726180D01*
G01D02*
X435290Y726490D01*
G01D02*
X435710Y726730D01*
G01D02*
X436170Y726900D01*
G01D02*
X436580Y726990D01*
G01D02*
X449430Y739840D01*
G01D02*
X449450Y740510D01*
G01D02*
X449550Y741140D01*
G01D02*
X436500Y728090D01*
G01D02*
X432820D01*
G01D02*
X432410Y727830D01*
G01D02*
X431970Y727640D01*
G01D02*
X431490Y727520D01*
G01D02*
X431010Y727480D01*
G01D02*
X430530Y727520D01*
G01D02*
X430040Y727640D01*
G01D02*
X429720Y727050D01*
G01D02*
X429330Y726500D01*
G01D02*
X428870Y726000D01*
G01D02*
X428360Y725560D01*
G01D02*
X427800Y725190D01*
G01D02*
X427450Y725000D01*
G01D02*
X428040Y724670D01*
G01D02*
X428580Y724270D01*
G01D02*
X429060Y723810D01*
G01D02*
X429490Y723290D01*
G01D02*
X429860Y722720D01*
G01D02*
X430150Y722120D01*
G01D02*
X430370Y721480D01*
G01D02*
X430510Y720820D01*
G01D02*
X430570Y720150D01*
G01D02*
X430540Y719480D01*
G01D02*
X430440Y718820D01*
G01D02*
X430260Y718170D01*
G01D02*
X430000Y717550D01*
G01D02*
X429670Y716960D01*
G01D02*
X429270Y716420D01*
G01D02*
X428810Y715930D01*
G01D02*
X428290Y715510D01*
G01D02*
X427720Y715140D01*
G01D02*
X427120Y714850D01*
G01D02*
X426480Y714630D01*
G01D02*
X425820Y714490D01*
G01D02*
X425150Y714430D01*
G01D02*
X424480Y714450D01*
G01D02*
X423820Y714560D01*
G01D02*
X423170Y714740D01*
G01D02*
X422550Y715000D01*
G01D02*
X421960Y715330D01*
G01D02*
X421420Y715730D01*
G01D02*
X420940Y716190D01*
G01D02*
X420510Y716710D01*
G01D02*
X420140Y717280D01*
G01D02*
X419850Y717880D01*
G01D02*
X419630Y718520D01*
G01D02*
X419490Y719180D01*
G01D02*
X419430Y719840D01*
G01D02*
X419460Y720520D01*
G01D02*
X419560Y721180D01*
G01D02*
X419740Y721830D01*
G01D02*
X420000Y722450D01*
G01D02*
X420330Y723030D01*
G01D02*
X420730Y723580D01*
G01D02*
X421190Y724060D01*
G01D02*
X421710Y724490D01*
G01D02*
X422550Y725000D01*
G01D02*
X421970Y725330D01*
G01D02*
X421430Y725730D01*
G01D02*
X420940Y726190D01*
G01D02*
X420510Y726710D01*
G01D02*
X420140Y727280D01*
G01D02*
X419850Y727880D01*
G01D02*
X419630Y728520D01*
G01D02*
X419490Y729180D01*
G01D02*
X419440Y729850D01*
G01D02*
X419460Y730520D01*
G01D02*
X419560Y731180D01*
G01D02*
X419740Y731830D01*
G01D02*
X420000Y732450D01*
G01D02*
X420330Y733040D01*
G01D02*
X420730Y733580D01*
G01D02*
X421190Y734060D01*
G01D02*
X421710Y734490D01*
G01D02*
X422550Y735000D01*
G01D02*
X421970Y735330D01*
G01D02*
X421430Y735730D01*
G01D02*
X420940Y736190D01*
G01D02*
X420510Y736710D01*
G01D02*
X420140Y737280D01*
G01D02*
X419850Y737880D01*
G01D02*
X419630Y738520D01*
G01D02*
X419490Y739180D01*
G01D02*
X419440Y739850D01*
G01D02*
X419460Y740520D01*
G01D02*
X419560Y741180D01*
G01D02*
X419740Y741830D01*
G01D02*
X420000Y742450D01*
G01D02*
X420330Y743040D01*
G01D02*
X420730Y743580D01*
G01D02*
X421190Y744060D01*
G01D02*
X421710Y744490D01*
G01D02*
X422550Y745000D01*
G01D02*
X421970Y745330D01*
G01D02*
X421430Y745730D01*
G01D02*
X420940Y746190D01*
G01D02*
X420510Y746710D01*
G01D02*
X420140Y747280D01*
G01D02*
X419850Y747880D01*
G01D02*
X419630Y748520D01*
G01D02*
X419490Y749180D01*
G01D02*
X419440Y749850D01*
G01D02*
X419460Y750520D01*
G01D02*
X419560Y751180D01*
G01D02*
X419740Y751830D01*
G01D02*
X420000Y752450D01*
G01D02*
X420330Y753040D01*
G01D02*
X420730Y753580D01*
G01D02*
X421190Y754060D01*
G01D02*
X421710Y754490D01*
G01D02*
X422550Y755000D01*
G01D02*
X421960Y755330D01*
G01D02*
X421420Y755730D01*
G01D02*
X420940Y756190D01*
G01D02*
X420510Y756710D01*
G01D02*
X420140Y757280D01*
G01D02*
X419850Y757880D01*
G01D02*
X419630Y758520D01*
G01D02*
X419490Y759180D01*
G01D02*
X419430Y759850D01*
G01D02*
X419460Y760520D01*
G01D02*
X419560Y761180D01*
G01D02*
X419740Y761830D01*
G01D02*
X420000Y762450D01*
G01D02*
X420330Y763040D01*
G01D02*
X420730Y763580D01*
G01D02*
X421190Y764070D01*
G01D02*
X421710Y764490D01*
G01D02*
X422280Y764860D01*
G01D02*
X422880Y765150D01*
G01D02*
X423520Y765370D01*
G01D02*
X424180Y765510D01*
G01D02*
X424850Y765570D01*
G01D02*
X425520Y765550D01*
G01D02*
X426180Y765440D01*
G01D02*
X426830Y765260D01*
G01D02*
X427450Y765000D01*
G01D02*
X428040Y764670D01*
G01D02*
X428580Y764270D01*
G01D02*
X429060Y763810D01*
G01D02*
X429490Y763290D01*
G01D02*
X429860Y762720D01*
G01D02*
X430150Y762120D01*
G01D02*
X430370Y761480D01*
G01D02*
X430510Y760820D01*
G01D02*
X430570Y760160D01*
G01D02*
X430540Y759480D01*
G01D02*
X430440Y758820D01*
G01D02*
X430260Y758170D01*
G01D02*
X430000Y757550D01*
G01D02*
X429670Y756970D01*
G01D02*
X429270Y756420D01*
G01D02*
X428810Y755940D01*
G01D02*
X428290Y755510D01*
G01D02*
X427450Y755000D01*
G01D02*
X428030Y754670D01*
G01D02*
X428570Y754270D01*
G01D02*
X429060Y753810D01*
G01D02*
X429490Y753290D01*
G01D02*
X429860Y752720D01*
G01D02*
X430150Y752120D01*
G01D02*
X430370Y751480D01*
G01D02*
X430510Y750820D01*
G01D02*
X430560Y750150D01*
G01D02*
X430540Y749480D01*
G01D02*
X430440Y748820D01*
G01D02*
X430260Y748170D01*
G01D02*
X430000Y747550D01*
G01D02*
X429670Y746960D01*
G01D02*
X429270Y746420D01*
G01D02*
X428810Y745940D01*
G01D02*
X428290Y745510D01*
G01D02*
X427450Y745000D01*
G01D02*
X428030Y744670D01*
G01D02*
X428570Y744270D01*
G01D02*
X429060Y743810D01*
G01D02*
X429490Y743290D01*
G01D02*
X429860Y742720D01*
G01D02*
X430150Y742120D01*
G01D02*
X430370Y741480D01*
G01D02*
X430510Y740820D01*
G01D02*
X430560Y740150D01*
G01D02*
X430540Y739480D01*
G01D02*
X430440Y738820D01*
G01D02*
X430260Y738170D01*
G01D02*
X430000Y737550D01*
G01D02*
X429670Y736960D01*
G01D02*
X429270Y736420D01*
G01D02*
X428810Y735940D01*
G01D02*
X428290Y735510D01*
G01D02*
X427450Y735000D01*
G01D02*
X428040Y734670D01*
G01D02*
X428580Y734270D01*
G01D02*
X429070Y733800D01*
G01D02*
X429580Y733170D01*
G01D02*
X430020Y733360D01*
G01D02*
X430500Y733480D01*
G01D02*
X430980Y733520D01*
G01D02*
X431460Y733490D01*
G01D02*
X431940Y733370D01*
G01D02*
X432390Y733180D01*
G01D02*
X432820Y732910D01*
G01D02*
X434500D01*
G01D02*
X449740Y748150D01*
G01D02*
X449560Y748800D01*
G01D02*
X449450Y749470D01*
G01D02*
X449430Y750140D01*
G01D02*
X449490Y750810D01*
G01D02*
X449620Y751470D01*
G01D02*
X449840Y752100D01*
G01D02*
X450130Y752710D01*
G01D02*
X450500Y753280D01*
G01D02*
X450930Y753800D01*
G01D02*
X451410Y754260D01*
G01D02*
X451950Y754660D01*
G01D02*
X452550Y755000D01*
G01D02*
X451960Y755330D01*
G01D02*
X451420Y755730D01*
G01D02*
X450940Y756190D01*
G01D02*
X450510Y756710D01*
G01D02*
X450140Y757280D01*
G01D02*
X449850Y757880D01*
G01D02*
X449630Y758520D01*
G01D02*
X449490Y759180D01*
G01D02*
X449430Y759850D01*
G01D02*
X449460Y760520D01*
G01D02*
X449560Y761180D01*
G01D02*
X449740Y761830D01*
G01D02*
X450000Y762450D01*
G01D02*
X450330Y763040D01*
G01D02*
X450730Y763580D01*
G01D02*
X451190Y764070D01*
G01D02*
X451710Y764490D01*
G01D02*
X452280Y764860D01*
G01D02*
X452880Y765150D01*
G01D02*
X453520Y765370D01*
G01D02*
X454180Y765510D01*
G01D02*
X454850Y765570D01*
G01D02*
X455520Y765550D01*
G01D02*
X456180Y765440D01*
G01D02*
X456830Y765260D01*
G01D02*
X457450Y765000D01*
G01D02*
X458040Y764670D01*
G01D02*
X458580Y764270D01*
G01D02*
X459060Y763810D01*
G01D02*
X459490Y763290D01*
G01D02*
X459860Y762720D01*
G01D02*
X460150Y762120D01*
G01D02*
X460370Y761480D01*
G01D02*
X460510Y760820D01*
G01D02*
X460570Y760160D01*
G01D02*
X460540Y759480D01*
G01D02*
X460440Y758820D01*
G01D02*
X460260Y758170D01*
G01D02*
X460000Y757550D01*
G01D02*
X459670Y756970D01*
G01D02*
X459270Y756420D01*
G01D02*
X458810Y755940D01*
G01D02*
X458290Y755510D01*
G01D02*
X457450Y755000D01*
G01D02*
X458030Y754670D01*
G01D02*
X458570Y754270D01*
G01D02*
X459060Y753810D01*
G01D02*
X459490Y753290D01*
G01D02*
X459860Y752720D01*
G01D02*
X460150Y752120D01*
G01D02*
X460370Y751480D01*
G01D02*
X460510Y750820D01*
G01D02*
X460560Y750150D01*
G01D02*
X460540Y749480D01*
G01D02*
X460440Y748820D01*
G01D02*
X460260Y748170D01*
G01D02*
X460000Y747550D01*
G01D02*
X459670Y746960D01*
G01D02*
X459270Y746420D01*
G01D02*
X458810Y745940D01*
G01D02*
X458290Y745510D01*
G01D02*
X457450Y745000D01*
G01D02*
X458030Y744670D01*
G01D02*
X458570Y744270D01*
G01D02*
X459060Y743810D01*
G01D02*
X459490Y743290D01*
G01D02*
X459860Y742720D01*
G01D02*
X460150Y742120D01*
G01D02*
X460370Y741480D01*
G01D02*
X460510Y740820D01*
G01D02*
X460560Y740150D01*
G01D02*
X460540Y739480D01*
G01D02*
X460440Y738820D01*
G01D02*
X460260Y738170D01*
G01D02*
X460000Y737550D01*
G01D02*
X459670Y736960D01*
G01D02*
X459270Y736420D01*
G01D02*
X458810Y735940D01*
G01D02*
X458290Y735510D01*
G01D02*
X457450Y735000D01*
G01D02*
X458030Y734670D01*
G01D02*
X458570Y734270D01*
G01D02*
X459060Y733810D01*
G01D02*
X459490Y733290D01*
G01D02*
X459860Y732720D01*
G01D02*
X460150Y732120D01*
G01D02*
X460370Y731480D01*
G01D02*
X460510Y730820D01*
G01D02*
X460560Y730150D01*
G01D02*
X460540Y729480D01*
G01D02*
X460440Y728820D01*
G01D02*
X460260Y728170D01*
G01D02*
X460000Y727550D01*
G01D02*
X459670Y726960D01*
G01D02*
X459270Y726420D01*
G01D02*
X458810Y725940D01*
G01D02*
X458290Y725510D01*
G01D02*
X457450Y725000D01*
G01X402260Y772240D02*
Y775840D01*
G01D02*
X404160Y777740D01*
G01D02*
X407760D01*
G01D02*
X406970Y777400D01*
G01D02*
X406210Y777000D01*
G01D02*
X405490Y776520D01*
G01D02*
X404820Y775980D01*
G01D02*
X404200Y775380D01*
G01D02*
X403640Y774730D01*
G01D02*
X403150Y774020D01*
G01D02*
X402720Y773280D01*
G01D02*
X402260Y772240D01*
G01X472240Y702260D02*
X473030Y702600D01*
G01D02*
X473790Y703000D01*
G01D02*
X474510Y703480D01*
G01D02*
X475180Y704020D01*
G01D02*
X475800Y704620D01*
G01D02*
X476360Y705270D01*
G01D02*
X476850Y705980D01*
G01D02*
X477280Y706720D01*
G01D02*
X477740Y707760D01*
G01D02*
Y704160D01*
G01D02*
X475840Y702260D01*
G01D02*
X472240D01*
G01X477740Y772240D02*
X477400Y773030D01*
G01D02*
X477000Y773790D01*
G01D02*
X476520Y774510D01*
G01D02*
X475980Y775180D01*
G01D02*
X475380Y775800D01*
G01D02*
X474730Y776360D01*
G01D02*
X474020Y776850D01*
G01D02*
X473280Y777280D01*
G01D02*
X472240Y777740D01*
G01D02*
X475840D01*
G01D02*
X477740Y775840D01*
G01D02*
Y772240D01*
X410000Y725000D03*
Y735000D03*
Y743750D03*
Y755000D03*
X432500Y716250D03*
X447500D03*
X422500Y711250D03*
X431000Y730500D03*
X437000Y724000D03*
X440000D03*
X443000D03*
X445000Y743750D03*
X430000Y735000D03*
Y745000D03*
X448750Y740000D03*
X433750Y725000D03*
X430000Y755000D03*
X437500Y756500D03*
X435000Y772500D03*
X445000D03*
X442500Y756500D03*
X450000Y755000D03*
X457500Y711250D03*
X472500Y725000D03*
Y735000D03*
Y745000D03*
Y755000D03*
G54D13*
G01X541100Y637500D02*
Y625000D01*
X534900D01*
G01X529480D02*
X525600Y637500D01*
X521720Y625000D01*
G01X523120Y629370D02*
X528080D01*
G01X513200Y625000D02*
Y630620D01*
X516300Y637500D01*
G01X510100D02*
X513200Y630620D01*
G01X497700Y625000D02*
X503900D01*
Y637500D01*
X497700D01*
G01X500180Y631460D02*
X503900D01*
G01X491500Y625000D02*
Y637500D01*
X487630D01*
X486390Y636870D01*
X485610Y636040D01*
X485300Y634370D01*
X485610Y632710D01*
X486540Y631670D01*
X487630Y631040D01*
X491500D01*
G01X487630D02*
X485300Y625000D01*
G01X466550Y635420D02*
X465610Y636670D01*
X464530Y637290D01*
X463290Y637500D01*
X461740Y637080D01*
X460650Y636040D01*
X460340Y634790D01*
X460500Y633540D01*
X461120Y632500D01*
X464220Y630420D01*
X465610Y628960D01*
X466550Y626870D01*
X466860Y625000D01*
X460340D01*
G01X439570Y620830D02*
X441120Y622920D01*
X441900Y625000D01*
Y633330D01*
X441120Y635420D01*
X439570Y637500D01*
G01X425160Y631670D02*
X424540Y632290D01*
X424080Y633330D01*
X423760Y634790D01*
X424080Y636040D01*
X424690Y636870D01*
X425780Y637500D01*
X429960D01*
Y625000D01*
X424850D01*
X423760Y625830D01*
X423140Y627080D01*
X422840Y628540D01*
X423140Y630000D01*
X424080Y631250D01*
X425160Y631670D01*
X429960D01*
G01X414000Y625000D02*
X415240Y625210D01*
X416320Y626040D01*
X417260Y627290D01*
X417880Y628750D01*
X418190Y630420D01*
Y632080D01*
X417880Y633750D01*
X417260Y635210D01*
X416320Y636460D01*
X415240Y637290D01*
X414000Y637500D01*
X412760Y637290D01*
X411680Y636460D01*
X410740Y635210D01*
X410120Y633750D01*
X409810Y632080D01*
Y630420D01*
X410120Y628750D01*
X410740Y627290D01*
X411680Y626040D01*
X412760Y625210D01*
X414000Y625000D01*
G01X401600Y637500D02*
Y625000D01*
G01X405160Y637500D02*
X398040D01*
G01X389200D02*
Y625000D01*
G01X392760Y637500D02*
X385640D01*
G01X376800Y625000D02*
X378040Y625210D01*
X379120Y626040D01*
X380060Y627290D01*
X380680Y628750D01*
X380990Y630420D01*
Y632080D01*
X380680Y633750D01*
X380060Y635210D01*
X379120Y636460D01*
X378040Y637290D01*
X376800Y637500D01*
X375560Y637290D01*
X374480Y636460D01*
X373540Y635210D01*
X372920Y633750D01*
X372610Y632080D01*
Y630420D01*
X372920Y628750D01*
X373540Y627290D01*
X374480Y626040D01*
X375560Y625210D01*
X376800Y625000D01*
G01X368430D02*
Y637500D01*
X364400Y627080D01*
X360370Y637500D01*
Y625000D01*
G01X351230Y620830D02*
X349680Y622920D01*
X348900Y625000D01*
Y633330D01*
X349680Y635420D01*
X351230Y637500D01*
G01X492280Y650000D02*
X488400Y662500D01*
X484520Y650000D01*
G01X485920Y654370D02*
X490880D01*
G01X479410Y650000D02*
Y662500D01*
X476310D01*
X475070Y661870D01*
X474140Y661040D01*
X473360Y659790D01*
X472740Y658330D01*
X472590Y656250D01*
X472740Y654170D01*
X473360Y652710D01*
X474140Y651460D01*
X475070Y650620D01*
X476310Y650000D01*
X479410D01*
G01X466860D02*
X460340Y662500D01*
G01X466860D02*
X460340Y650000D01*
G01X454300Y662500D02*
Y650000D01*
X448100D01*
G01X442210Y652500D02*
X441280Y651040D01*
X440040Y650210D01*
X438640Y650000D01*
X437400Y650210D01*
X436160Y651250D01*
X435390Y652500D01*
X435240Y653750D01*
X435540Y655210D01*
X436630Y656250D01*
X437720Y656670D01*
X439110D01*
G01X437720D02*
X436790Y657290D01*
X436010Y658330D01*
X435700Y659580D01*
X436010Y660830D01*
X436790Y661870D01*
X438180Y662500D01*
X439570Y662290D01*
X440970Y661460D01*
G01X429350Y655210D02*
X428260Y656670D01*
X427330Y657500D01*
X426090Y657920D01*
X425000Y657500D01*
X424230Y656670D01*
X423610Y655420D01*
X423450Y653960D01*
X423610Y652710D01*
X424230Y651460D01*
X425160Y650420D01*
X426240Y650000D01*
X427480Y650420D01*
X428570Y651670D01*
X429190Y653540D01*
X429350Y655620D01*
X429040Y658330D01*
X428570Y659790D01*
X427800Y661250D01*
X426710Y662290D01*
X425630Y662500D01*
X424540Y662080D01*
X423760Y661040D01*
G01X416950Y660420D02*
X416010Y661670D01*
X414930Y662290D01*
X413690Y662500D01*
X412140Y662080D01*
X411050Y661040D01*
X410740Y659790D01*
X410900Y658540D01*
X411520Y657500D01*
X414620Y655420D01*
X416010Y653960D01*
X416950Y651870D01*
X417260Y650000D01*
X410740D01*
G01X404550Y662500D02*
X398650D01*
X404550Y650000D01*
X398650D01*
G54D14*
G01X402270Y704770D02*
X403270Y705770D01*
G01X403590Y702840D02*
X404790Y704040D01*
G01X406270Y702260D02*
X406720Y702710D01*
G01X403070Y706100D02*
X402270Y706900D01*
G01X406900Y702270D02*
X406100Y703070D01*
G01X415890Y776940D02*
X416690Y777740D01*
G01X402260Y763310D02*
X403060Y764110D01*
G01X417700Y775490D02*
X419950Y777740D01*
G01X402260Y760060D02*
X404510Y762300D01*
G01X419090Y773630D02*
X423200Y777740D01*
G01X402270Y756810D02*
X406370Y760910D01*
G01X420030Y771320D02*
X426450Y777740D01*
G01X402270Y753560D02*
X408680Y759970D01*
G01X420300Y768340D02*
X429700Y777740D01*
G01X402260Y750300D02*
X411660Y759700D01*
G01X402260Y747050D02*
X432950Y777740D01*
G01X423940Y765470D02*
X436210Y777740D01*
G01X402270Y743800D02*
X419530Y761060D01*
G01X426950Y765230D02*
X439460Y777740D01*
G01X402260Y740540D02*
X419780Y758060D01*
G01X428930Y763960D02*
X442710Y777740D01*
G01X402260Y737290D02*
X421040Y756070D01*
G01X430210Y761980D02*
X445970Y777740D01*
G01X402270Y734040D02*
X419600Y751380D01*
G01X430480Y759000D02*
X449220Y777740D01*
G01X402270Y730790D02*
X419710Y748240D01*
G01X428800Y754070D02*
X452470Y777740D01*
G01X402260Y727530D02*
X420930Y746200D01*
G01X430140Y752160D02*
X455720Y777740D01*
G01X402260Y724280D02*
X419700Y741720D01*
G01X430530Y749290D02*
X458980Y777740D01*
G01X402270Y721030D02*
X419660Y738420D01*
G01X428680Y744190D02*
X462230Y777740D01*
G01X402270Y717780D02*
X420810Y736320D01*
G01X465300Y777560D02*
X465480Y777740D01*
G01X452900Y765160D02*
X460440Y772700D01*
G01X430070Y742320D02*
X449840Y762100D01*
G01X407300Y719560D02*
X419840Y732100D01*
G01X402260Y714520D02*
X402440Y714700D01*
G01X456390Y765400D02*
X459680Y768690D01*
G01X430550Y739560D02*
X449600Y758610D01*
G01X411310Y720320D02*
X419600Y728610D01*
G01X458550Y764300D02*
X460190Y765940D01*
G01X428550Y734300D02*
X450700Y756450D01*
G01X414060Y719810D02*
X420700Y726450D01*
G01X459990Y762490D02*
X461270Y763770D01*
G01X452450Y754950D02*
X452510Y755010D01*
G01X431030Y733530D02*
X450040Y752540D01*
G01X422450Y724950D02*
X422510Y725010D01*
G01X416230Y718730D02*
X420050Y722560D01*
G01X460570Y759820D02*
X462790Y762040D01*
G01X433670Y732920D02*
X449550Y748800D01*
G01X417960Y717210D02*
X419560Y718800D01*
G01X458410Y754410D02*
X464720Y760720D01*
G01X428410Y724410D02*
X431540Y727530D01*
G01X419290Y715280D02*
X420590Y716590D01*
G01X459910Y752650D02*
X467120Y759860D01*
G01X429910Y722650D02*
X435350Y728090D01*
G01X420140Y712880D02*
X422350Y715090D01*
G01X460570Y750060D02*
X470270Y759760D01*
G01X430570Y720060D02*
X434010Y723500D01*
G01X420240Y709730D02*
X424940Y714430D01*
G01X458270Y744510D02*
X477740Y763980D01*
G01X416030Y702270D02*
X435280Y721510D01*
G01X459820Y742800D02*
X477740Y760720D01*
G01X419280Y702260D02*
X438280Y721260D01*
G01X460560Y740290D02*
X477740Y757470D01*
G01X422530Y702260D02*
X441590Y721320D01*
G01X458130Y734610D02*
X477740Y754220D01*
G01X425790Y702270D02*
X445110Y721590D01*
G01X459730Y732950D02*
X477740Y750960D01*
G01X429040Y702270D02*
X448360Y721590D01*
G01X460550Y730520D02*
X477740Y747710D01*
G01X432290Y702260D02*
X449450Y719430D01*
G01X457990Y724710D02*
X477740Y744460D01*
G01X435540Y702260D02*
X450290Y717010D01*
G01X459630Y723100D02*
X477740Y741210D01*
G01X438800Y702270D02*
X451900Y715360D01*
G01X460520Y720740D02*
X477740Y737960D01*
G01X442050Y702270D02*
X454260Y714470D01*
G01X445300Y702260D02*
X477740Y734700D01*
G01X466170Y719880D02*
X477740Y731450D01*
G01X448560Y702270D02*
X460120Y713830D01*
G01X469830Y720290D02*
X477740Y728200D01*
G01X451810Y702270D02*
X459710Y710170D01*
G01X472460Y719660D02*
X477740Y724940D01*
G01X455060Y702260D02*
X460340Y707540D01*
G01X474550Y718500D02*
X477740Y721690D01*
G01X458310Y702260D02*
X461500Y705450D01*
G01X476210Y716910D02*
X477740Y718440D01*
G01X461570Y702270D02*
X463090Y703790D01*
G01X477470Y714910D02*
X477740Y715180D01*
G01X464820Y702270D02*
X465090Y702530D01*
G01X403050Y715880D02*
X402270Y716660D01*
G01X416660Y702270D02*
X415880Y703050D01*
G01X404490Y717680D02*
X402260Y719910D01*
G01X419910Y702270D02*
X417680Y704490D01*
G01X406350Y719080D02*
X402260Y723170D01*
G01X423170Y702260D02*
X419080Y706350D01*
G01X408660Y720030D02*
X402270Y726420D01*
G01X426420Y702260D02*
X420030Y708660D01*
G01X411640Y720300D02*
X402270Y729670D01*
G01X429670Y702270D02*
X420300Y711640D01*
G01X432920Y702270D02*
X402270Y732920D01*
G01X419540Y718900D02*
X402260Y736180D01*
G01X436180Y702260D02*
X423910Y714530D01*
G01X419770Y721920D02*
X402260Y739430D01*
G01X439430Y702260D02*
X426920Y714770D01*
G01X421030Y723920D02*
X402270Y742680D01*
G01X442680Y702270D02*
X428920Y716030D01*
G01X419610Y728590D02*
X402270Y745930D01*
G01X445930Y702270D02*
X430200Y718000D01*
G01X419710Y731740D02*
X402260Y749190D01*
G01X449190Y702260D02*
X430490Y720960D01*
G01X420920Y733790D02*
X402270Y752440D01*
G01X452440Y702270D02*
X428790Y725920D01*
G01X419710Y738240D02*
X402260Y755690D01*
G01X433970Y723980D02*
X430420Y727530D01*
G01X455690Y702270D02*
X436980Y720980D01*
G01X419650Y741560D02*
X402260Y758950D01*
G01X434970Y726240D02*
X433120Y728090D01*
G01X458950Y702260D02*
X440230Y720980D01*
G01X420800Y743660D02*
X402260Y762200D01*
G01X430940Y733530D02*
X428660Y735800D01*
G01X437020Y727440D02*
X436370Y728090D01*
G01X462200Y702260D02*
X443450Y721010D01*
G01X402460Y765250D02*
X402260Y765450D01*
G01X419860Y747860D02*
X407240Y760470D01*
G01X434650Y733070D02*
X430060Y737660D01*
G01X438650Y729070D02*
X438070Y729650D01*
G01X449850Y717870D02*
X446130Y721590D01*
G01X460460Y707250D02*
X452860Y714850D01*
G01X465450Y702270D02*
X465240Y702470D01*
G01X419600Y751370D02*
X411290Y759680D01*
G01X436280Y734690D02*
X430560Y740410D01*
G01X440280Y730690D02*
X439690Y731280D01*
G01X449590Y721370D02*
X449370Y721590D01*
G01X459680Y711290D02*
X456370Y714600D01*
G01X420690Y753530D02*
X414040Y760180D01*
G01X437900Y736320D02*
X428530Y745690D01*
G01X441900Y732320D02*
X441320Y732900D01*
G01X460180Y714040D02*
X458530Y715690D01*
G01X420070Y757400D02*
X416210Y761260D01*
G01X422490Y754980D02*
X422400Y755070D01*
G01X439530Y737940D02*
X429980Y747490D01*
G01X443530Y733940D02*
X442940Y734530D01*
G01X461260Y716210D02*
X459980Y717490D01*
G01X419550Y761180D02*
X417950Y762780D01*
G01X441160Y739570D02*
X430570Y750160D01*
G01X445160Y735570D02*
X444570Y736160D01*
G01X462780Y717950D02*
X460570Y720160D01*
G01X420580Y763400D02*
X419280Y764700D01*
G01X442780Y741200D02*
X428400Y755580D01*
G01X446780Y737200D02*
X446200Y737780D01*
G01X464700Y719280D02*
X458400Y725580D01*
G01X422330Y764900D02*
X420130Y767100D01*
G01X444410Y742820D02*
X429900Y757340D01*
G01X448410Y738820D02*
X447820Y739410D01*
G01X467100Y720130D02*
X459900Y727340D01*
G01X424910Y765570D02*
X420240Y770240D01*
G01X446030Y744450D02*
X430570Y759910D01*
G01X449510Y740970D02*
X449450Y741030D01*
G01X470240Y720240D02*
X460570Y729910D01*
G01X447660Y746080D02*
X416000Y777740D01*
G01X477740Y716000D02*
X458260Y735480D01*
G01X449290Y747700D02*
X419250Y777740D01*
G01X477740Y719250D02*
X459810Y737180D01*
G01X449470Y750770D02*
X422500Y777740D01*
G01X477740Y722500D02*
X460560Y739680D01*
G01X450380Y753120D02*
X425760Y777740D01*
G01X477740Y725760D02*
X458120Y745380D01*
G01X452030Y754720D02*
X429010Y777740D01*
G01X477740Y729010D02*
X459720Y747030D01*
G01X449450Y760550D02*
X432260Y777740D01*
G01X477740Y732260D02*
X460550Y749460D01*
G01X450280Y762970D02*
X435510Y777740D01*
G01X477740Y735510D02*
X457970Y755280D01*
G01X451880Y764620D02*
X438760Y777740D01*
G01X477740Y738770D02*
X459620Y756890D01*
G01X454240Y765520D02*
X442020Y777740D01*
G01X477740Y742020D02*
X460520Y759240D01*
G01X477740Y745270D02*
X445270Y777740D01*
G01X460130Y766130D02*
X448520Y777740D01*
G01X477740Y748520D02*
X466130Y760130D01*
G01X459710Y769810D02*
X451780Y777740D01*
G01X477740Y751780D02*
X469810Y759710D01*
G01X460330Y772440D02*
X455030Y777740D01*
G01X477740Y755030D02*
X472440Y760330D01*
G01X461490Y774530D02*
X458280Y777740D01*
G01X477740Y758280D02*
X474530Y761490D01*
G01X463080Y776200D02*
X461540Y777740D01*
G01X477740Y761540D02*
X476200Y763080D01*
G01X465070Y777460D02*
X464790Y777740D01*
G01X477740Y764790D02*
X477460Y765070D01*
G01X406160Y776970D02*
X406930Y777740D01*
G01X402260Y773070D02*
X403030Y773840D01*
G01X403260Y774210D02*
X402260Y775210D01*
G01X404780Y775950D02*
X403580Y777150D01*
G01X406700Y777280D02*
X406240Y777740D01*
G01X431000Y730500D02*
X435500D01*
X455000Y750000D01*
G01X437000Y724000D02*
X453000Y740000D01*
X455000D01*
G01Y730000D02*
X446000D01*
X440000Y724000D01*
G01X443000D02*
X451000D01*
X455000Y720000D01*
G01X474580Y702270D02*
X477740Y705430D01*
G01X475210Y702260D02*
X474210Y703260D01*
G01X477150Y703580D02*
X475950Y704780D01*
G01X477740Y706240D02*
X477280Y706700D01*
G01X474230Y776730D02*
X475240Y777740D01*
G01X475960Y775210D02*
X477160Y776410D01*
G01X477290Y773280D02*
X477740Y773730D01*
G01Y774550D02*
X474550Y777740D01*
G54D15*
G01X411000Y711000D02*
X417590Y704410D01*
G01X404410Y717590D02*
X411000Y711000D01*
G01D02*
X417590Y717590D01*
G01X404410Y704410D02*
X411000Y711000D01*
G01X410000Y743750D02*
X410960D01*
G01X408720D02*
X410000D01*
G01D02*
Y744710D01*
G01Y741770D02*
Y743750D01*
G01X411000Y769000D02*
X417590Y762410D01*
G01X404410Y775590D02*
X411000Y769000D01*
G01D02*
X417590Y775590D01*
G01X404410Y762410D02*
X411000Y769000D01*
G01X422500Y711250D02*
X423940D01*
G01X421760D02*
X422500D01*
G01D02*
Y711990D01*
G01Y709440D02*
Y711250D01*
G01X447500Y716250D02*
X448210D01*
G01X446270D02*
X447500D01*
G01D02*
Y716960D01*
G01Y714220D02*
Y716250D01*
G01X425000Y740000D02*
X428940Y736060D01*
G01X421060Y743940D02*
X425000Y740000D01*
G01D02*
X428940Y743940D01*
G01X421060Y736060D02*
X425000Y740000D01*
G01X450000Y755000D02*
X451750D01*
G01X449250D02*
X450000D01*
G01D02*
Y755750D01*
G01Y753500D02*
Y755000D01*
G01X442500Y756500D02*
X443740D01*
G01X440990D02*
X442500D01*
G01D02*
Y757740D01*
G01Y754760D02*
Y756500D01*
G01X445000Y772500D02*
X447230D01*
G01X444000D02*
X445000D01*
G01D02*
Y773520D01*
G01Y771500D02*
Y772500D01*
G01X435000D02*
X437470D01*
G01X434250D02*
X435000D01*
G01D02*
Y773280D01*
G01Y771750D02*
Y772500D01*
G01X469000Y711000D02*
X475590Y704410D01*
G01X462410Y717590D02*
X469000Y711000D01*
G01D02*
X475590Y717590D01*
G01X462410Y704410D02*
X469000Y711000D01*
G01X472500Y745000D02*
X474760D01*
G01X471780D02*
X472500D01*
G01D02*
Y745720D01*
G01Y744010D02*
Y745000D01*
G01Y735000D02*
X474780D01*
G01X471750D02*
X472500D01*
G01D02*
Y735970D01*
G01Y734250D02*
Y735000D01*
G01X455000Y760000D02*
X458940Y756060D01*
G01X451060Y763940D02*
X455000Y760000D01*
G01D02*
X458940Y763940D01*
G01X451060Y756060D02*
X455000Y760000D01*
G01X469000Y769000D02*
X475590Y762410D01*
G01X462410Y775590D02*
X469000Y769000D01*
G01D02*
X475590Y775590D01*
G01X462410Y762410D02*
X469000Y769000D01*
G54D16*
G01X401460Y697500D02*
X421460D01*
G01X397500Y701460D02*
X401460Y697500D01*
G01X397500Y721460D02*
Y701460D01*
G01Y778540D02*
Y758540D01*
G01X401460Y782500D02*
X397500Y778540D01*
G01X421460Y782500D02*
X401460D01*
G01X458540Y697500D02*
X478540D01*
G01D02*
X482500Y701460D01*
G01Y778540D02*
X478540Y782500D01*
G01D02*
X458540D01*
G01X482500Y701460D02*
Y721460D01*
G01Y758540D02*
Y778540D01*
M02*
