G04 ================== begin FILE IDENTIFICATION RECORD ==================*
G04 Layout Name:  C:/work/cadence/ADI/adxl362/worklib/adxl362z/physical/xl362z.brd*
G04 Film Name:    silk_top*
G04 File Format:  Gerber RS274X*
G04 File Origin:  15.7-s011*
G04 Origin Date:  Fri Oct 28 17:35:41 2011*
G04 *
G04 Layer:  USER PART NUMBER/SILKSCREEN_TOP*
G04 Layer:  REF DES/SILKSCREEN_TOP*
G04 Layer:  PACKAGE GEOMETRY/SILKSCREEN_TOP*
G04 Layer:  BOARD GEOMETRY/SILKSCREEN_TOP*
G04 Layer:  BOARD GEOMETRY/PCB_NAME_TOP*
G04 Layer:  BOARD GEOMETRY/CUT_MARKS*
G04 *
G04 Offset:    (0.0 0.0)*
G04 Mirror:    No*
G04 Mode:      Positive*
G04 Rotation:  0*
G04 FullContactRelief:  No*
G04 UndefLineWidth:     5.0*
G04 ================== end FILE IDENTIFICATION RECORD ====================*
%FSLAX55Y55*MOIN*%
%IR0*IPPOS*OFA0.00000B0.00000*MIA0B0*SFA1.00000B1.00000*%
%ADD10C,.005*%
%ADD11C,.006*%
%ADD12C,.008*%
%ADD13C,.0059*%
%ADD14C,.0079*%
%ADD15C,.05*%
G75*
%LPD*%
G75*
G36*
G01X432320Y736440D02*
G03I-1380J0D01*
G37*
G36*
G01X434000Y765000D02*
X433250D01*
Y763500D01*
X431750D01*
Y762750D01*
X433250D01*
Y761250D01*
X434000D01*
Y762750D01*
X435500D01*
Y763500D01*
X434000D01*
Y765000D01*
G37*
G54D10*
G01X299140Y626670D02*
X300390Y625620D01*
X301780Y625000D01*
X303020D01*
X304260Y625620D01*
X305190Y626670D01*
X305660Y628130D01*
X305350Y629580D01*
X304570Y630830D01*
X303170Y631670D01*
X301320Y632080D01*
X300230Y632920D01*
X299760Y634370D01*
X300080Y635830D01*
X300850Y636870D01*
X301930Y637500D01*
X303020D01*
X304110Y637080D01*
X305040Y636040D01*
G01X312940Y637500D02*
X316660D01*
G01X314800D02*
Y625000D01*
G01X312940D02*
X316660D01*
G01X324100Y637500D02*
Y625000D01*
X330300D01*
G01X336190D02*
Y637500D01*
G01X342080D02*
X336190Y629790D01*
G01X343010Y625000D02*
X338830Y633330D01*
G01X348740Y626670D02*
X349990Y625620D01*
X351380Y625000D01*
X352620D01*
X353860Y625620D01*
X354790Y626670D01*
X355260Y628130D01*
X354950Y629580D01*
X354170Y630830D01*
X352770Y631670D01*
X350920Y632080D01*
X349830Y632920D01*
X349360Y634370D01*
X349680Y635830D01*
X350450Y636870D01*
X351530Y637500D01*
X352620D01*
X353710Y637080D01*
X354640Y636040D01*
G01X367810Y636460D02*
X366880Y637080D01*
X365800Y637500D01*
X364560D01*
X363160Y636870D01*
X362080Y635830D01*
X361300Y634580D01*
X360680Y632500D01*
X360520Y630620D01*
X360840Y628750D01*
X361300Y627500D01*
X362230Y626250D01*
X363320Y625420D01*
X364400Y625000D01*
X365480D01*
X366570Y625420D01*
X367500Y626040D01*
X368280Y626870D01*
G01X373700Y625000D02*
Y637500D01*
X377570D01*
X378810Y636870D01*
X379590Y636040D01*
X379900Y634370D01*
X379590Y632710D01*
X378660Y631670D01*
X377570Y631040D01*
X373700D01*
G01X377570D02*
X379900Y625000D01*
G01X392300D02*
X386100D01*
Y637500D01*
X392300D01*
G01X389820Y631460D02*
X386100D01*
G01X404700Y625000D02*
X398500D01*
Y637500D01*
X404700D01*
G01X402220Y631460D02*
X398500D01*
G01X410440Y625000D02*
Y637500D01*
X417560Y625000D01*
Y637500D01*
G01X435700D02*
Y625000D01*
X441900D01*
G01X447320D02*
X451200Y637500D01*
X455080Y625000D01*
G01X453680Y629370D02*
X448720D01*
G01X463600Y625000D02*
Y630620D01*
X460500Y637500D01*
G01X466700D02*
X463600Y630620D01*
G01X479100Y625000D02*
X472900D01*
Y637500D01*
X479100D01*
G01X476620Y631460D02*
X472900D01*
G01X485300Y625000D02*
Y637500D01*
X489170D01*
X490410Y636870D01*
X491190Y636040D01*
X491500Y634370D01*
X491190Y632710D01*
X490260Y631670D01*
X489170Y631040D01*
X485300D01*
G01X489170D02*
X491500Y625000D01*
G01X513200D02*
Y637500D01*
X511340Y635000D01*
G01Y625000D02*
X515060D01*
G01X537230Y620830D02*
X535680Y622920D01*
X534900Y625000D01*
Y633330D01*
X535680Y635420D01*
X537230Y637500D01*
G01X550400D02*
Y625000D01*
G01X546840Y637500D02*
X553960D01*
G01X562800Y625000D02*
X561560Y625210D01*
X560480Y626040D01*
X559540Y627290D01*
X558920Y628750D01*
X558610Y630420D01*
Y632080D01*
X558920Y633750D01*
X559540Y635210D01*
X560480Y636460D01*
X561560Y637290D01*
X562800Y637500D01*
X564040Y637290D01*
X565120Y636460D01*
X566060Y635210D01*
X566680Y633750D01*
X566990Y632080D01*
Y630420D01*
X566680Y628750D01*
X566060Y627290D01*
X565120Y626040D01*
X564040Y625210D01*
X562800Y625000D01*
G01X572100D02*
Y637500D01*
X575820D01*
X577060Y636870D01*
X577990Y635420D01*
X578300Y633750D01*
X577990Y632080D01*
X577210Y630830D01*
X575820Y630210D01*
X572100D01*
G01X588370Y620830D02*
X589920Y622920D01*
X590700Y625000D01*
Y633330D01*
X589920Y635420D01*
X588370Y637500D01*
G01X397720Y650000D02*
X401600Y662500D01*
X405480Y650000D01*
G01X404080Y654370D02*
X399120D01*
G01X410590Y650000D02*
Y662500D01*
X413690D01*
X414930Y661870D01*
X415860Y661040D01*
X416640Y659790D01*
X417260Y658330D01*
X417410Y656250D01*
X417260Y654170D01*
X416640Y652710D01*
X415860Y651460D01*
X414930Y650620D01*
X413690Y650000D01*
X410590D01*
G01X423140D02*
X429660Y662500D01*
G01X423140D02*
X429660Y650000D01*
G01X435700Y662500D02*
Y650000D01*
X441900D01*
G01X447790Y652500D02*
X448720Y651040D01*
X449960Y650210D01*
X451360Y650000D01*
X452600Y650210D01*
X453840Y651250D01*
X454610Y652500D01*
X454760Y653750D01*
X454460Y655210D01*
X453370Y656250D01*
X452280Y656670D01*
X450890D01*
G01X452280D02*
X453210Y657290D01*
X453990Y658330D01*
X454300Y659580D01*
X453990Y660830D01*
X453210Y661870D01*
X451820Y662500D01*
X450430Y662290D01*
X449030Y661460D01*
G01X460650Y655210D02*
X461740Y656670D01*
X462670Y657500D01*
X463910Y657920D01*
X465000Y657500D01*
X465770Y656670D01*
X466390Y655420D01*
X466550Y653960D01*
X466390Y652710D01*
X465770Y651460D01*
X464840Y650420D01*
X463760Y650000D01*
X462520Y650420D01*
X461430Y651670D01*
X460810Y653540D01*
X460650Y655620D01*
X460960Y658330D01*
X461430Y659790D01*
X462200Y661250D01*
X463290Y662290D01*
X464370Y662500D01*
X465460Y662080D01*
X466240Y661040D01*
G01X473050Y660420D02*
X473990Y661670D01*
X475070Y662290D01*
X476310Y662500D01*
X477860Y662080D01*
X478950Y661040D01*
X479260Y659790D01*
X479100Y658540D01*
X478480Y657500D01*
X475380Y655420D01*
X473990Y653960D01*
X473050Y651870D01*
X472740Y650000D01*
X479260D01*
G01X485450Y662500D02*
X491350D01*
X485450Y650000D01*
X491350D01*
G54D11*
G01X407760Y723500D02*
X408640D01*
G01X408200D02*
Y720000D01*
G01X407760D02*
X408640D01*
G01X410560D02*
Y723500D01*
X412240Y720000D01*
Y723500D01*
G01X414600D02*
Y720000D01*
G01X413760Y723500D02*
X415440D01*
G01X417800Y720000D02*
Y723500D01*
X417360Y722800D01*
G01Y720000D02*
X418240D01*
G01X417750Y702500D02*
Y706000D01*
X418700Y703080D01*
X419650Y706000D01*
Y702500D01*
G01X420980D02*
X421900Y706000D01*
X422820Y702500D01*
G01X422490Y703720D02*
X421310D01*
G01X424290Y702500D02*
Y706000D01*
X425030D01*
X425320Y705820D01*
X425540Y705590D01*
X425720Y705240D01*
X425870Y704830D01*
X425910Y704250D01*
X425870Y703670D01*
X425720Y703260D01*
X425540Y702910D01*
X425320Y702670D01*
X425030Y702500D01*
X424290D01*
G01X429030D02*
X427570D01*
Y706000D01*
X429030D01*
G01X428450Y704310D02*
X427570D01*
G01X434260Y706000D02*
X435140D01*
G01X434700D02*
Y702500D01*
G01X434260D02*
X435140D01*
G01X437060D02*
Y706000D01*
X438740Y702500D01*
Y706000D01*
G01X445110Y705710D02*
X444890Y705880D01*
X444630Y706000D01*
X444340D01*
X444010Y705820D01*
X443750Y705530D01*
X443570Y705180D01*
X443420Y704600D01*
X443380Y704070D01*
X443460Y703550D01*
X443570Y703200D01*
X443790Y702850D01*
X444040Y702620D01*
X444300Y702500D01*
X444560D01*
X444810Y702620D01*
X445030Y702790D01*
X445220Y703020D01*
G01X446580Y702500D02*
X447500Y706000D01*
X448420Y702500D01*
G01X448090Y703720D02*
X446910D01*
G01X449860Y702500D02*
Y706000D01*
X451540Y702500D01*
Y706000D01*
G01X452980Y702500D02*
X453900Y706000D01*
X454820Y702500D01*
G01X454490Y703720D02*
X453310D01*
G01X456290Y702500D02*
Y706000D01*
X457030D01*
X457320Y705820D01*
X457540Y705590D01*
X457720Y705240D01*
X457870Y704830D01*
X457910Y704250D01*
X457870Y703670D01*
X457720Y703260D01*
X457540Y702910D01*
X457320Y702670D01*
X457030Y702500D01*
X456290D01*
G01X459380D02*
X460300Y706000D01*
X461220Y702500D01*
G01X460890Y703720D02*
X459710D01*
G01X405500Y718280D02*
X402000Y719200D01*
X405500Y720120D01*
G01X404280Y719790D02*
Y718610D01*
G01X405500Y721560D02*
X402000D01*
X405500Y723240D01*
X402000D01*
G01X405500Y724680D02*
X402000Y725600D01*
X405500Y726520D01*
G01X404280Y726190D02*
Y725010D01*
G01X402000Y728070D02*
X405500D01*
Y729530D01*
G01Y732000D02*
X405440Y731710D01*
X405210Y731450D01*
X404860Y731230D01*
X404450Y731080D01*
X403980Y731010D01*
X403520D01*
X403050Y731080D01*
X402640Y731230D01*
X402290Y731450D01*
X402060Y731710D01*
X402000Y732000D01*
X402060Y732290D01*
X402290Y732550D01*
X402640Y732770D01*
X403050Y732920D01*
X403520Y732990D01*
X403980D01*
X404450Y732920D01*
X404860Y732770D01*
X405210Y732550D01*
X405440Y732290D01*
X405500Y732000D01*
G01X403750Y735420D02*
Y736150D01*
X404800D01*
X405150Y735930D01*
X405380Y735680D01*
X405500Y735310D01*
X405380Y734940D01*
X405150Y734690D01*
X404800Y734470D01*
X404390Y734320D01*
X403930Y734250D01*
X403520D01*
X403170Y734320D01*
X402760Y734470D01*
X402410Y734690D01*
X402180Y734910D01*
X402000Y735200D01*
Y735460D01*
X402120Y735750D01*
X402350Y735970D01*
G01X405500Y740790D02*
X402000D01*
Y741530D01*
X402180Y741820D01*
X402410Y742040D01*
X402760Y742220D01*
X403170Y742370D01*
X403750Y742410D01*
X404330Y742370D01*
X404740Y742220D01*
X405090Y742040D01*
X405330Y741820D01*
X405500Y741530D01*
Y740790D01*
G01Y745530D02*
Y744070D01*
X402000D01*
Y745530D01*
G01X403690Y744950D02*
Y744070D01*
G01X402000Y747080D02*
X405500Y748000D01*
X402000Y748920D01*
G01Y750760D02*
Y751640D01*
G01Y751200D02*
X405500D01*
G01Y750760D02*
Y751640D01*
G01X402290Y755210D02*
X402120Y754990D01*
X402000Y754730D01*
Y754440D01*
X402180Y754110D01*
X402470Y753850D01*
X402820Y753670D01*
X403400Y753520D01*
X403930Y753480D01*
X404450Y753560D01*
X404800Y753670D01*
X405150Y753890D01*
X405380Y754140D01*
X405500Y754400D01*
Y754660D01*
X405380Y754910D01*
X405210Y755130D01*
X404980Y755320D01*
G01X405500Y758330D02*
Y756870D01*
X402000D01*
Y758330D01*
G01X403690Y757750D02*
Y756870D01*
G01X405030Y760030D02*
X405330Y760320D01*
X405500Y760650D01*
Y760950D01*
X405330Y761240D01*
X405030Y761460D01*
X404620Y761570D01*
X404220Y761500D01*
X403870Y761310D01*
X403630Y760980D01*
X403520Y760540D01*
X403280Y760290D01*
X402880Y760180D01*
X402470Y760250D01*
X402180Y760430D01*
X402000Y760690D01*
Y760950D01*
X402120Y761200D01*
X402410Y761420D01*
G01X410380Y751500D02*
X411300Y748000D01*
X412220Y751500D01*
G01X414060D02*
X414940D01*
G01X414500D02*
Y748000D01*
G01X414060D02*
X414940D01*
G01X417700D02*
X417410Y748060D01*
X417150Y748290D01*
X416930Y748640D01*
X416780Y749050D01*
X416710Y749520D01*
Y749980D01*
X416780Y750450D01*
X416930Y750860D01*
X417150Y751210D01*
X417410Y751440D01*
X417700Y751500D01*
X417990Y751440D01*
X418250Y751210D01*
X418470Y750860D01*
X418620Y750450D01*
X418690Y749980D01*
Y749520D01*
X418620Y749050D01*
X418470Y748640D01*
X418250Y748290D01*
X417990Y748060D01*
X417700Y748000D01*
G01X407760Y731500D02*
X408640D01*
G01X408200D02*
Y728000D01*
G01X407760D02*
X408640D01*
G01X410560D02*
Y731500D01*
X412240Y728000D01*
Y731500D01*
G01X414600D02*
Y728000D01*
G01X413760Y731500D02*
X415440D01*
G01X417100Y730920D02*
X417320Y731270D01*
X417580Y731440D01*
X417870Y731500D01*
X418240Y731380D01*
X418500Y731090D01*
X418570Y730740D01*
X418530Y730390D01*
X418390Y730100D01*
X417650Y729520D01*
X417320Y729110D01*
X417100Y728520D01*
X417030Y728000D01*
X418570D01*
G01X411520Y739750D02*
X412250D01*
Y738700D01*
X412030Y738350D01*
X411780Y738120D01*
X411410Y738000D01*
X411040Y738120D01*
X410790Y738350D01*
X410570Y738700D01*
X410420Y739110D01*
X410350Y739570D01*
Y739980D01*
X410420Y740330D01*
X410570Y740740D01*
X410790Y741090D01*
X411010Y741320D01*
X411300Y741500D01*
X411560D01*
X411850Y741380D01*
X412070Y741150D01*
G01X413660Y738000D02*
Y741500D01*
X415340Y738000D01*
Y741500D01*
G01X416890Y738000D02*
Y741500D01*
X417630D01*
X417920Y741320D01*
X418140Y741090D01*
X418320Y740740D01*
X418470Y740330D01*
X418510Y739750D01*
X418470Y739170D01*
X418320Y738760D01*
X418140Y738410D01*
X417920Y738170D01*
X417630Y738000D01*
X416890D01*
G01X413480Y760500D02*
X414400Y757000D01*
X415320Y760500D01*
G01X416830Y757470D02*
X417120Y757170D01*
X417450Y757000D01*
X417750D01*
X418040Y757170D01*
X418260Y757470D01*
X418370Y757880D01*
X418300Y758280D01*
X418110Y758630D01*
X417780Y758870D01*
X417340Y758980D01*
X417090Y759220D01*
X416980Y759620D01*
X417050Y760030D01*
X417230Y760320D01*
X417490Y760500D01*
X417750D01*
X418000Y760380D01*
X418220Y760090D01*
G01X427860Y712500D02*
X428740D01*
G01X428300D02*
Y709000D01*
G01X427860D02*
X428740D01*
G01X430660D02*
Y712500D01*
X432340Y709000D01*
Y712500D01*
G01X434700D02*
Y709000D01*
G01X433860Y712500D02*
X435540D01*
G01X438630Y709000D02*
X437170D01*
Y712500D01*
X438630D01*
G01X438050Y710810D02*
X437170D01*
G01X440150Y709000D02*
Y712500D01*
X441100Y709580D01*
X442050Y712500D01*
Y709000D01*
G01X443570D02*
Y712500D01*
X444450D01*
X444740Y712320D01*
X444960Y711920D01*
X445030Y711450D01*
X444960Y710980D01*
X444780Y710630D01*
X444450Y710460D01*
X443570D01*
G01X448310Y712210D02*
X448090Y712380D01*
X447830Y712500D01*
X447540D01*
X447210Y712320D01*
X446950Y712030D01*
X446770Y711680D01*
X446620Y711100D01*
X446580Y710570D01*
X446660Y710050D01*
X446770Y709700D01*
X446990Y709350D01*
X447240Y709120D01*
X447500Y709000D01*
X447760D01*
X448010Y709120D01*
X448230Y709290D01*
X448420Y709520D01*
G01X450700Y709000D02*
X450410Y709060D01*
X450150Y709290D01*
X449930Y709640D01*
X449780Y710050D01*
X449710Y710520D01*
Y710980D01*
X449780Y711450D01*
X449930Y711860D01*
X450150Y712210D01*
X450410Y712440D01*
X450700Y712500D01*
X450990Y712440D01*
X451250Y712210D01*
X451470Y711860D01*
X451620Y711450D01*
X451690Y710980D01*
Y710520D01*
X451620Y710050D01*
X451470Y709640D01*
X451250Y709290D01*
X450990Y709060D01*
X450700Y709000D01*
G01X435820Y744180D02*
Y741670D01*
X435970Y741150D01*
X436260Y740800D01*
X436630Y740680D01*
X437000Y740800D01*
X437290Y741150D01*
X437440Y741670D01*
Y744180D01*
G01X439830Y740680D02*
Y744180D01*
X439390Y743480D01*
G01Y740680D02*
X440270D01*
G01X440000Y755000D02*
Y745000D01*
X445000D01*
Y755000D01*
X440000D01*
G01Y745000D02*
Y755000D01*
X435000D01*
Y745000D01*
X440000D01*
G01X431410Y776710D02*
X431190Y776880D01*
X430930Y777000D01*
X430640D01*
X430310Y776820D01*
X430050Y776530D01*
X429870Y776180D01*
X429720Y775600D01*
X429680Y775070D01*
X429760Y774550D01*
X429870Y774200D01*
X430090Y773850D01*
X430340Y773620D01*
X430600Y773500D01*
X430860D01*
X431110Y773620D01*
X431330Y773790D01*
X431520Y774020D01*
G01X432990Y774200D02*
X433210Y773790D01*
X433510Y773560D01*
X433840Y773500D01*
X434130Y773560D01*
X434420Y773850D01*
X434610Y774200D01*
X434640Y774550D01*
X434570Y774960D01*
X434310Y775250D01*
X434060Y775370D01*
X433730D01*
G01X434060D02*
X434280Y775540D01*
X434460Y775830D01*
X434530Y776180D01*
X434460Y776530D01*
X434280Y776820D01*
X433950Y777000D01*
X433620Y776940D01*
X433290Y776710D01*
G01X445290Y757710D02*
X445120Y757490D01*
X445000Y757230D01*
Y756940D01*
X445180Y756610D01*
X445470Y756350D01*
X445820Y756170D01*
X446400Y756020D01*
X446930Y755980D01*
X447450Y756060D01*
X447800Y756170D01*
X448150Y756390D01*
X448380Y756640D01*
X448500Y756900D01*
Y757160D01*
X448380Y757410D01*
X448210Y757630D01*
X447980Y757820D01*
G01X445580Y759400D02*
X445230Y759620D01*
X445060Y759880D01*
X445000Y760170D01*
X445120Y760540D01*
X445410Y760800D01*
X445760Y760870D01*
X446110Y760830D01*
X446400Y760690D01*
X446980Y759950D01*
X447390Y759620D01*
X447980Y759400D01*
X448500Y759330D01*
Y760870D01*
G01X431790Y757210D02*
X431620Y756990D01*
X431500Y756730D01*
Y756440D01*
X431680Y756110D01*
X431970Y755850D01*
X432320Y755670D01*
X432900Y755520D01*
X433430Y755480D01*
X433950Y755560D01*
X434300Y755670D01*
X434650Y755890D01*
X434880Y756140D01*
X435000Y756400D01*
Y756660D01*
X434880Y756910D01*
X434710Y757130D01*
X434480Y757320D01*
G01X435000Y759600D02*
X431500D01*
X432200Y759160D01*
G01X435000D02*
Y760040D01*
G01X463210Y722710D02*
X462990Y722880D01*
X462730Y723000D01*
X462440D01*
X462110Y722820D01*
X461850Y722530D01*
X461670Y722180D01*
X461520Y721600D01*
X461480Y721070D01*
X461560Y720550D01*
X461670Y720200D01*
X461890Y719850D01*
X462140Y719620D01*
X462400Y719500D01*
X462660D01*
X462910Y719620D01*
X463130Y719790D01*
X463320Y720020D01*
G01X464830Y719970D02*
X465120Y719670D01*
X465450Y719500D01*
X465750D01*
X466040Y719670D01*
X466260Y719970D01*
X466370Y720380D01*
X466300Y720780D01*
X466110Y721130D01*
X465780Y721370D01*
X465340Y721480D01*
X465090Y721720D01*
X464980Y722120D01*
X465050Y722530D01*
X465230Y722820D01*
X465490Y723000D01*
X465750D01*
X466000Y722880D01*
X466220Y722590D01*
G01X478500Y727880D02*
X475000Y728800D01*
X478500Y729720D01*
G01X477280Y729390D02*
Y728210D01*
G01X478500Y731190D02*
X475000D01*
Y731930D01*
X475180Y732220D01*
X475410Y732440D01*
X475760Y732620D01*
X476170Y732770D01*
X476750Y732810D01*
X477330Y732770D01*
X477740Y732620D01*
X478090Y732440D01*
X478330Y732220D01*
X478500Y731930D01*
Y731190D01*
G01Y734430D02*
X475000Y735970D01*
G01Y734430D02*
X478500Y735970D01*
G01X475000Y737670D02*
X478500D01*
Y739130D01*
G01X477800Y740790D02*
X478210Y741010D01*
X478440Y741310D01*
X478500Y741640D01*
X478440Y741930D01*
X478150Y742220D01*
X477800Y742410D01*
X477450Y742440D01*
X477040Y742370D01*
X476750Y742110D01*
X476630Y741860D01*
Y741530D01*
G01Y741860D02*
X476460Y742080D01*
X476170Y742260D01*
X475820Y742330D01*
X475470Y742260D01*
X475180Y742080D01*
X475000Y741750D01*
X475060Y741420D01*
X475290Y741090D01*
G01X477040Y744100D02*
X476630Y744360D01*
X476400Y744580D01*
X476280Y744870D01*
X476400Y745130D01*
X476630Y745310D01*
X476980Y745460D01*
X477390Y745500D01*
X477740Y745460D01*
X478090Y745310D01*
X478380Y745090D01*
X478500Y744840D01*
X478380Y744540D01*
X478030Y744290D01*
X477510Y744140D01*
X476930Y744100D01*
X476170Y744180D01*
X475760Y744290D01*
X475350Y744470D01*
X475060Y744730D01*
X475000Y744980D01*
X475120Y745240D01*
X475410Y745420D01*
G01X475580Y747300D02*
X475230Y747520D01*
X475060Y747780D01*
X475000Y748070D01*
X475120Y748440D01*
X475410Y748700D01*
X475760Y748770D01*
X476110Y748730D01*
X476400Y748590D01*
X476980Y747850D01*
X477390Y747520D01*
X477980Y747300D01*
X478500Y747230D01*
Y748770D01*
G01X475000Y750500D02*
Y751900D01*
X478500Y750500D01*
Y751900D01*
G01X461750Y738500D02*
Y742000D01*
X462700Y739080D01*
X463650Y742000D01*
Y738500D01*
G01X465900D02*
X465610Y738560D01*
X465350Y738790D01*
X465130Y739140D01*
X464980Y739550D01*
X464910Y740020D01*
Y740480D01*
X464980Y740950D01*
X465130Y741360D01*
X465350Y741710D01*
X465610Y741940D01*
X465900Y742000D01*
X466190Y741940D01*
X466450Y741710D01*
X466670Y741360D01*
X466820Y740950D01*
X466890Y740480D01*
Y740020D01*
X466820Y739550D01*
X466670Y739140D01*
X466450Y738790D01*
X466190Y738560D01*
X465900Y738500D01*
G01X468330Y738970D02*
X468620Y738670D01*
X468950Y738500D01*
X469250D01*
X469540Y738670D01*
X469760Y738970D01*
X469870Y739380D01*
X469800Y739780D01*
X469610Y740130D01*
X469280Y740370D01*
X468840Y740480D01*
X468590Y740720D01*
X468480Y741120D01*
X468550Y741530D01*
X468730Y741820D01*
X468990Y742000D01*
X469250D01*
X469500Y741880D01*
X469720Y741590D01*
G01X471860Y742000D02*
X472740D01*
G01X472300D02*
Y738500D01*
G01X471860D02*
X472740D01*
G01X461750Y728500D02*
Y732000D01*
X462700Y729080D01*
X463650Y732000D01*
Y728500D01*
G01X465460Y732000D02*
X466340D01*
G01X465900D02*
Y728500D01*
G01X465460D02*
X466340D01*
G01X468330Y728970D02*
X468620Y728670D01*
X468950Y728500D01*
X469250D01*
X469540Y728670D01*
X469760Y728970D01*
X469870Y729380D01*
X469800Y729780D01*
X469610Y730130D01*
X469280Y730370D01*
X468840Y730480D01*
X468590Y730720D01*
X468480Y731120D01*
X468550Y731530D01*
X468730Y731820D01*
X468990Y732000D01*
X469250D01*
X469500Y731880D01*
X469720Y731590D01*
G01X472300Y728500D02*
X472010Y728560D01*
X471750Y728790D01*
X471530Y729140D01*
X471380Y729550D01*
X471310Y730020D01*
Y730480D01*
X471380Y730950D01*
X471530Y731360D01*
X471750Y731710D01*
X472010Y731940D01*
X472300Y732000D01*
X472590Y731940D01*
X472850Y731710D01*
X473070Y731360D01*
X473220Y730950D01*
X473290Y730480D01*
Y730020D01*
X473220Y729550D01*
X473070Y729140D01*
X472850Y728790D01*
X472590Y728560D01*
X472300Y728500D01*
G01X461430Y748970D02*
X461720Y748670D01*
X462050Y748500D01*
X462350D01*
X462640Y748670D01*
X462860Y748970D01*
X462970Y749380D01*
X462900Y749780D01*
X462710Y750130D01*
X462380Y750370D01*
X461940Y750480D01*
X461690Y750720D01*
X461580Y751120D01*
X461650Y751530D01*
X461830Y751820D01*
X462090Y752000D01*
X462350D01*
X462600Y751880D01*
X462820Y751590D01*
G01X466210Y751710D02*
X465990Y751880D01*
X465730Y752000D01*
X465440D01*
X465110Y751820D01*
X464850Y751530D01*
X464670Y751180D01*
X464520Y750600D01*
X464480Y750070D01*
X464560Y749550D01*
X464670Y749200D01*
X464890Y748850D01*
X465140Y748620D01*
X465400Y748500D01*
X465660D01*
X465910Y748620D01*
X466130Y748790D01*
X466320Y749020D01*
G01X467870Y752000D02*
Y748500D01*
X469330D01*
G01X470990D02*
Y752000D01*
G01X472390D02*
X470990Y749840D01*
G01X472610Y748500D02*
X471620Y750830D01*
G01X462520Y758750D02*
X463250D01*
Y757700D01*
X463030Y757350D01*
X462780Y757120D01*
X462410Y757000D01*
X462040Y757120D01*
X461790Y757350D01*
X461570Y757700D01*
X461420Y758110D01*
X461350Y758570D01*
Y758980D01*
X461420Y759330D01*
X461570Y759740D01*
X461790Y760090D01*
X462010Y760320D01*
X462300Y760500D01*
X462560D01*
X462850Y760380D01*
X463070Y760150D01*
G01X464660Y757000D02*
Y760500D01*
X466340Y757000D01*
Y760500D01*
G01X467890Y757000D02*
Y760500D01*
X468630D01*
X468920Y760320D01*
X469140Y760090D01*
X469320Y759740D01*
X469470Y759330D01*
X469510Y758750D01*
X469470Y758170D01*
X469320Y757760D01*
X469140Y757410D01*
X468920Y757170D01*
X468630Y757000D01*
X467890D01*
G54D12*
G01X420000Y715000D02*
X430000D01*
Y765000D01*
X420000D01*
Y715000D01*
G01X450000Y736500D02*
Y715000D01*
G01D02*
X460000D01*
Y765000D01*
X450000D01*
Y739400D01*
G01X443750Y758500D02*
Y776500D01*
X436250D01*
Y758500D01*
X443750D01*
G54D13*
G01X421670Y766500D02*
Y771500D01*
X423190D01*
X423700Y771250D01*
X424090Y770670D01*
X424210Y770000D01*
X424090Y769330D01*
X423770Y768830D01*
X423190Y768580D01*
X421670D01*
G01X428060Y766500D02*
Y771500D01*
X427300Y770500D01*
G01Y766500D02*
X428820D01*
G01X452170D02*
Y771500D01*
X453690D01*
X454200Y771250D01*
X454590Y770670D01*
X454710Y770000D01*
X454590Y769330D01*
X454270Y768830D01*
X453690Y768580D01*
X452170D01*
G01X457350Y770670D02*
X457730Y771170D01*
X458180Y771420D01*
X458690Y771500D01*
X459320Y771330D01*
X459770Y770920D01*
X459900Y770420D01*
X459830Y769920D01*
X459580Y769500D01*
X458310Y768670D01*
X457730Y768080D01*
X457350Y767250D01*
X457220Y766500D01*
X459900D01*
G54D14*
G01X433410Y726990D02*
Y726400D01*
X436850D01*
G01Y738600D02*
X433410D01*
Y738010D01*
G01X446590D02*
Y738600D01*
X443150D01*
G01X446590Y726990D02*
Y726400D01*
X443150D01*
G54D15*
G01X401460Y697500D02*
X421460D01*
G01X397500Y701460D02*
X401460Y697500D01*
G01X397500Y721460D02*
Y701460D01*
G01Y778540D02*
Y758540D01*
G01X401460Y782500D02*
X397500Y778540D01*
G01X421460Y782500D02*
X401460D01*
G01X458540Y697500D02*
X478540D01*
G01D02*
X482500Y701460D01*
G01Y778540D02*
X478540Y782500D01*
G01D02*
X458540D01*
G01X482500Y701460D02*
Y721460D01*
G01Y758540D02*
Y778540D01*
M02*
