G04 ================== begin FILE IDENTIFICATION RECORD ==================*
G04 Layout Name:  C:/work/cadence/ADI/adxl362/worklib/adxl362z/physical/xl362z.brd*
G04 Film Name:    smask_top*
G04 File Format:  Gerber RS274X*
G04 File Origin:  15.7-s011*
G04 Origin Date:  Fri Oct 28 17:35:41 2011*
G04 *
G04 Layer:  VIA CLASS/SOLDERMASK_TOP*
G04 Layer:  PIN/SOLDERMASK_TOP*
G04 Layer:  PACKAGE GEOMETRY/SOLDERMASK_TOP*
G04 Layer:  BOARD GEOMETRY/OUTLINE*
G04 Layer:  BOARD GEOMETRY/SOLDERMASK_TOP*
G04 Layer:  BOARD GEOMETRY/PCB_NAME_TOP*
G04 *
G04 Offset:    (0.0 0.0)*
G04 Mirror:    No*
G04 Mode:      Positive*
G04 Rotation:  0*
G04 FullContactRelief:  No*
G04 UndefLineWidth:     15.0*
G04 ================== end FILE IDENTIFICATION RECORD ====================*
%FSLAX55Y55*MOIN*%
%IR0*IPPOS*OFA0.00000B0.00000*MIA0B0*SFA1.00000B1.00000*%
%ADD11C,.16*%
%ADD15R,.04X.036*%
%ADD12C,.016*%
%ADD13R,.0404X.0157*%
%ADD10C,.095*%
%ADD16R,.059X.073*%
%ADD14R,.0157X.0354*%
%ADD17C,.005*%
%ADD18C,.015*%
G75*
%LPD*%
G75*
G54D10*
X425000Y720000D03*
Y740000D03*
Y750000D03*
Y730000D03*
Y760000D03*
X455000Y720000D03*
Y740000D03*
Y750000D03*
Y730000D03*
Y760000D03*
G54D11*
X411000Y711000D03*
Y769000D03*
X469000Y711000D03*
Y769000D03*
G54D12*
X410000Y725000D03*
Y735000D03*
Y743750D03*
Y755000D03*
X432500Y716250D03*
X447500D03*
X422500Y711250D03*
X431000Y730500D03*
X437000Y724000D03*
X440000D03*
X443000D03*
X445000Y743750D03*
X430000Y735000D03*
Y745000D03*
X448750Y740000D03*
X433750Y725000D03*
X430000Y755000D03*
X437500Y756500D03*
X435000Y772500D03*
X445000D03*
X442500Y756500D03*
X450000Y755000D03*
X457500Y711250D03*
X472500Y725000D03*
Y735000D03*
Y745000D03*
Y755000D03*
G54D13*
X434930Y736440D03*
Y734470D03*
Y732500D03*
Y730530D03*
Y728560D03*
X445070D03*
Y730530D03*
Y732500D03*
Y734470D03*
Y736440D03*
G54D14*
X438030Y727480D03*
X440000D03*
X441970D03*
Y737520D03*
X440000D03*
X438030D03*
G54D15*
X442500Y747300D03*
X437500D03*
X442500Y752700D03*
X437500D03*
G54D16*
X440000Y772220D03*
Y762780D03*
G54D17*
G01X299140Y626670D02*
X300390Y625620D01*
X301780Y625000D01*
X303020D01*
X304260Y625620D01*
X305190Y626670D01*
X305660Y628130D01*
X305350Y629580D01*
X304570Y630830D01*
X303170Y631670D01*
X301320Y632080D01*
X300230Y632920D01*
X299760Y634370D01*
X300080Y635830D01*
X300850Y636870D01*
X301930Y637500D01*
X303020D01*
X304110Y637080D01*
X305040Y636040D01*
G01X314800Y625000D02*
X313560Y625210D01*
X312480Y626040D01*
X311540Y627290D01*
X310920Y628750D01*
X310610Y630420D01*
Y632080D01*
X310920Y633750D01*
X311540Y635210D01*
X312480Y636460D01*
X313560Y637290D01*
X314800Y637500D01*
X316040Y637290D01*
X317120Y636460D01*
X318060Y635210D01*
X318680Y633750D01*
X318990Y632080D01*
Y630420D01*
X318680Y628750D01*
X318060Y627290D01*
X317120Y626040D01*
X316040Y625210D01*
X314800Y625000D01*
G01X324100Y637500D02*
Y625000D01*
X330300D01*
G01X336190D02*
Y637500D01*
X339290D01*
X340530Y636870D01*
X341460Y636040D01*
X342240Y634790D01*
X342860Y633330D01*
X343010Y631250D01*
X342860Y629170D01*
X342240Y627710D01*
X341460Y626460D01*
X340530Y625620D01*
X339290Y625000D01*
X336190D01*
G01X355100D02*
X348900D01*
Y637500D01*
X355100D01*
G01X352620Y631460D02*
X348900D01*
G01X361300Y625000D02*
Y637500D01*
X365170D01*
X366410Y636870D01*
X367190Y636040D01*
X367500Y634370D01*
X367190Y632710D01*
X366260Y631670D01*
X365170Y631040D01*
X361300D01*
G01X365170D02*
X367500Y625000D01*
G01X372770D02*
Y637500D01*
X376800Y627080D01*
X380830Y637500D01*
Y625000D01*
G01X385320D02*
X389200Y637500D01*
X393080Y625000D01*
G01X391680Y629370D02*
X386720D01*
G01X398340Y626670D02*
X399590Y625620D01*
X400980Y625000D01*
X402220D01*
X403460Y625620D01*
X404390Y626670D01*
X404860Y628130D01*
X404550Y629580D01*
X403770Y630830D01*
X402370Y631670D01*
X400520Y632080D01*
X399430Y632920D01*
X398960Y634370D01*
X399280Y635830D01*
X400050Y636870D01*
X401130Y637500D01*
X402220D01*
X403310Y637080D01*
X404240Y636040D01*
G01X410590Y625000D02*
Y637500D01*
G01X416480D02*
X410590Y629790D01*
G01X417410Y625000D02*
X413230Y633330D01*
G01X435700Y637500D02*
Y625000D01*
X441900D01*
G01X447320D02*
X451200Y637500D01*
X455080Y625000D01*
G01X453680Y629370D02*
X448720D01*
G01X463600Y625000D02*
Y630620D01*
X460500Y637500D01*
G01X466700D02*
X463600Y630620D01*
G01X479100Y625000D02*
X472900D01*
Y637500D01*
X479100D01*
G01X476620Y631460D02*
X472900D01*
G01X485300Y625000D02*
Y637500D01*
X489170D01*
X490410Y636870D01*
X491190Y636040D01*
X491500Y634370D01*
X491190Y632710D01*
X490260Y631670D01*
X489170Y631040D01*
X485300D01*
G01X489170D02*
X491500Y625000D01*
G01X513200D02*
Y637500D01*
X511340Y635000D01*
G01Y625000D02*
X515060D01*
G01X537230Y620830D02*
X535680Y622920D01*
X534900Y625000D01*
Y633330D01*
X535680Y635420D01*
X537230Y637500D01*
G01X550400D02*
Y625000D01*
G01X546840Y637500D02*
X553960D01*
G01X562800Y625000D02*
X561560Y625210D01*
X560480Y626040D01*
X559540Y627290D01*
X558920Y628750D01*
X558610Y630420D01*
Y632080D01*
X558920Y633750D01*
X559540Y635210D01*
X560480Y636460D01*
X561560Y637290D01*
X562800Y637500D01*
X564040Y637290D01*
X565120Y636460D01*
X566060Y635210D01*
X566680Y633750D01*
X566990Y632080D01*
Y630420D01*
X566680Y628750D01*
X566060Y627290D01*
X565120Y626040D01*
X564040Y625210D01*
X562800Y625000D01*
G01X572100D02*
Y637500D01*
X575820D01*
X577060Y636870D01*
X577990Y635420D01*
X578300Y633750D01*
X577990Y632080D01*
X577210Y630830D01*
X575820Y630210D01*
X572100D01*
G01X588370Y620830D02*
X589920Y622920D01*
X590700Y625000D01*
Y633330D01*
X589920Y635420D01*
X588370Y637500D01*
G01X397720Y650000D02*
X401600Y662500D01*
X405480Y650000D01*
G01X404080Y654370D02*
X399120D01*
G01X410590Y650000D02*
Y662500D01*
X413690D01*
X414930Y661870D01*
X415860Y661040D01*
X416640Y659790D01*
X417260Y658330D01*
X417410Y656250D01*
X417260Y654170D01*
X416640Y652710D01*
X415860Y651460D01*
X414930Y650620D01*
X413690Y650000D01*
X410590D01*
G01X423140D02*
X429660Y662500D01*
G01X423140D02*
X429660Y650000D01*
G01X435700Y662500D02*
Y650000D01*
X441900D01*
G01X447790Y652500D02*
X448720Y651040D01*
X449960Y650210D01*
X451360Y650000D01*
X452600Y650210D01*
X453840Y651250D01*
X454610Y652500D01*
X454760Y653750D01*
X454460Y655210D01*
X453370Y656250D01*
X452280Y656670D01*
X450890D01*
G01X452280D02*
X453210Y657290D01*
X453990Y658330D01*
X454300Y659580D01*
X453990Y660830D01*
X453210Y661870D01*
X451820Y662500D01*
X450430Y662290D01*
X449030Y661460D01*
G01X460650Y655210D02*
X461740Y656670D01*
X462670Y657500D01*
X463910Y657920D01*
X465000Y657500D01*
X465770Y656670D01*
X466390Y655420D01*
X466550Y653960D01*
X466390Y652710D01*
X465770Y651460D01*
X464840Y650420D01*
X463760Y650000D01*
X462520Y650420D01*
X461430Y651670D01*
X460810Y653540D01*
X460650Y655620D01*
X460960Y658330D01*
X461430Y659790D01*
X462200Y661250D01*
X463290Y662290D01*
X464370Y662500D01*
X465460Y662080D01*
X466240Y661040D01*
G01X473050Y660420D02*
X473990Y661670D01*
X475070Y662290D01*
X476310Y662500D01*
X477860Y662080D01*
X478950Y661040D01*
X479260Y659790D01*
X479100Y658540D01*
X478480Y657500D01*
X475380Y655420D01*
X473990Y653960D01*
X473050Y651870D01*
X472740Y650000D01*
X479260D01*
G01X485450Y662500D02*
X491350D01*
X485450Y650000D01*
X491350D01*
G54D18*
G01X402500Y700000D02*
X477500D01*
X480000Y702500D01*
Y777500D01*
X477500Y780000D01*
X402500D01*
X400000Y777500D01*
Y702500D01*
X402500Y700000D01*
M02*
