G04 ================== begin FILE IDENTIFICATION RECORD ==================*
G04 Layout Name:  C:/work/cadence/ADI/adxl362/worklib/adxl362z/physical/xl362z.brd*
G04 Film Name:    top*
G04 File Format:  Gerber RS274X*
G04 File Origin:  15.7-s011*
G04 Origin Date:  Fri Oct 28 17:35:41 2011*
G04 *
G04 Layer:  VIA CLASS/TOP*
G04 Layer:  PIN/TOP*
G04 Layer:  ETCH/TOP*
G04 Layer:  BOARD GEOMETRY/LAYER_1*
G04 Layer:  BOARD GEOMETRY/PCB_NAME_TOP*
G04 Layer:  BOARD GEOMETRY/CUT_MARKS*
G04 *
G04 Offset:    (0.0 0.0)*
G04 Mirror:    No*
G04 Mode:      Positive*
G04 Rotation:  0*
G04 FullContactRelief:  No*
G04 UndefLineWidth:     5.0*
G04 ================== end FILE IDENTIFICATION RECORD ====================*
%FSLAX55Y55*MOIN*%
%IR0*IPPOS*OFA0.00000B0.00000*MIA0B0*SFA1.00000B1.00000*%
%ADD11C,.15*%
%ADD15R,.034X.03*%
%ADD12C,.02*%
%ADD14R,.0118X.0315*%
%ADD16R,.053X.067*%
%ADD10C,.075*%
%ADD13R,.0364X.0118*%
%ADD17C,.005*%
%ADD18C,.008*%
%ADD19C,.01*%
%ADD20C,.013*%
%ADD21C,.05*%
%ADD22C,.015*%
G75*
%LPD*%
G75*
G54D10*
X425000Y720000D03*
Y740000D03*
Y750000D03*
Y730000D03*
Y760000D03*
X455000Y720000D03*
Y740000D03*
Y750000D03*
Y730000D03*
Y760000D03*
G54D20*
G01X411000Y711000D02*
X417590Y704410D01*
G01X404410Y717590D02*
X411000Y711000D01*
G01D02*
X417590Y717590D01*
G01X404410Y704410D02*
X411000Y711000D01*
G01X410000Y743750D02*
X410960D01*
G01X408720D02*
X410000D01*
G01D02*
Y744710D01*
G01Y741770D02*
Y743750D01*
G01X411000Y769000D02*
X417590Y762410D01*
G01X404410Y775590D02*
X411000Y769000D01*
G01D02*
X417590Y775590D01*
G01X404410Y762410D02*
X411000Y769000D01*
G01X422500Y711250D02*
X423940D01*
G01X421760D02*
X422500D01*
G01D02*
Y711990D01*
G01Y709440D02*
Y711250D01*
G01X447500Y716250D02*
X448210D01*
G01X446280D02*
X447500D01*
G01D02*
Y716960D01*
G01Y714220D02*
Y716250D01*
G01X425000Y740000D02*
X428940Y736060D01*
G01X421060Y743940D02*
X425000Y740000D01*
G01D02*
X428940Y743940D01*
G01X421060Y736060D02*
X425000Y740000D01*
G01X440000Y772220D02*
X444560D01*
G01X435440D02*
X440000D01*
G01D02*
Y777480D01*
G01X469000Y711000D02*
X475590Y704410D01*
G01X462410Y717590D02*
X469000Y711000D01*
G01D02*
X475590Y717590D01*
G01X462410Y704410D02*
X469000Y711000D01*
G01X472500Y745000D02*
X474760D01*
G01X471780D02*
X472500D01*
G01D02*
Y745720D01*
G01Y744010D02*
Y745000D01*
G01Y735000D02*
X474780D01*
G01X471750D02*
X472500D01*
G01D02*
Y735970D01*
G01Y734250D02*
Y735000D01*
G01X455000Y760000D02*
X458940Y756060D01*
G01X451060Y763940D02*
X455000Y760000D01*
G01D02*
X458940Y763940D01*
G01X451060Y756060D02*
X455000Y760000D01*
G01X469000Y769000D02*
X475590Y762410D01*
G01X462410Y775590D02*
X469000Y769000D01*
G01D02*
X475590Y775590D01*
G01X462410Y762410D02*
X469000Y769000D01*
G54D11*
X411000Y711000D03*
Y769000D03*
X469000Y711000D03*
Y769000D03*
G54D21*
G01X401460Y697500D02*
X421460D01*
G01X397500Y701460D02*
X401460Y697500D01*
G01X397500Y721460D02*
Y701460D01*
G01Y778540D02*
Y758540D01*
G01X401460Y782500D02*
X397500Y778540D01*
G01X421460Y782500D02*
X401460D01*
G01X458540Y697500D02*
X478540D01*
G01D02*
X482500Y701460D01*
G01Y778540D02*
X478540Y782500D01*
G01D02*
X458540D01*
G01X482500Y701460D02*
Y721460D01*
G01Y758540D02*
Y778540D01*
G54D12*
G01X404160Y702260D02*
X402260Y704160D01*
G01D02*
Y707760D01*
G01D02*
X402600Y706970D01*
G01D02*
X403000Y706210D01*
G01D02*
X403480Y705490D01*
G01D02*
X404020Y704820D01*
G01D02*
X404620Y704200D01*
G01D02*
X405270Y703640D01*
G01D02*
X405980Y703150D01*
G01D02*
X406720Y702720D01*
G01D02*
X407760Y702260D01*
G01D02*
X404160D01*
G01X414240D02*
X415030Y702600D01*
G01D02*
X415790Y703000D01*
G01D02*
X416510Y703480D01*
G01D02*
X417180Y704020D01*
G01D02*
X417800Y704620D01*
G01D02*
X418350Y705270D01*
G01D02*
X418850Y705980D01*
G01D02*
X419280Y706720D01*
G01D02*
X419640Y707510D01*
G01D02*
X419930Y708320D01*
G01D02*
X420140Y709150D01*
G01D02*
X420270Y710000D01*
G01D02*
X420320Y710860D01*
G01D02*
X420290Y711720D01*
G01D02*
X420190Y712580D01*
G01D02*
X420000Y713420D01*
G01D02*
X419740Y714240D01*
G01D02*
X419400Y715030D01*
G01D02*
X418990Y715790D01*
G01D02*
X418520Y716510D01*
G01D02*
X417980Y717180D01*
G01D02*
X417380Y717800D01*
G01D02*
X416720Y718350D01*
G01D02*
X416020Y718850D01*
G01D02*
X415280Y719280D01*
G01D02*
X414490Y719640D01*
G01D02*
X413680Y719930D01*
G01D02*
X412850Y720140D01*
G01D02*
X411990Y720270D01*
G01D02*
X411140Y720320D01*
G01D02*
X410270Y720290D01*
G01D02*
X409420Y720190D01*
G01D02*
X408580Y720000D01*
G01D02*
X407760Y719740D01*
G01D02*
X406970Y719400D01*
G01D02*
X406210Y718990D01*
G01D02*
X405490Y718520D01*
G01D02*
X404820Y717980D01*
G01D02*
X404200Y717380D01*
G01D02*
X403640Y716720D01*
G01D02*
X403150Y716020D01*
G01D02*
X402720Y715280D01*
G01D02*
X402260Y714240D01*
G01D02*
Y765760D01*
G01D02*
X402600Y764970D01*
G01D02*
X403000Y764210D01*
G01D02*
X403480Y763490D01*
G01D02*
X404020Y762820D01*
G01D02*
X404620Y762200D01*
G01D02*
X405270Y761650D01*
G01D02*
X405980Y761150D01*
G01D02*
X406720Y760720D01*
G01D02*
X407510Y760360D01*
G01D02*
X408320Y760070D01*
G01D02*
X409150Y759860D01*
G01D02*
X410000Y759730D01*
G01D02*
X410860Y759680D01*
G01D02*
X411720Y759710D01*
G01D02*
X412580Y759810D01*
G01D02*
X413420Y760000D01*
G01D02*
X414240Y760260D01*
G01D02*
X415030Y760600D01*
G01D02*
X415790Y761010D01*
G01D02*
X416510Y761480D01*
G01D02*
X417180Y762020D01*
G01D02*
X417800Y762620D01*
G01D02*
X418350Y763280D01*
G01D02*
X418850Y763980D01*
G01D02*
X419280Y764720D01*
G01D02*
X419640Y765510D01*
G01D02*
X419930Y766320D01*
G01D02*
X420140Y767150D01*
G01D02*
X420270Y768010D01*
G01D02*
X420320Y768860D01*
G01D02*
X420290Y769730D01*
G01D02*
X420190Y770580D01*
G01D02*
X420000Y771420D01*
G01D02*
X419740Y772240D01*
G01D02*
X419400Y773030D01*
G01D02*
X418990Y773790D01*
G01D02*
X418520Y774510D01*
G01D02*
X417980Y775180D01*
G01D02*
X417380Y775800D01*
G01D02*
X416720Y776360D01*
G01D02*
X416020Y776850D01*
G01D02*
X415280Y777280D01*
G01D02*
X414240Y777740D01*
G01D02*
X465760D01*
G01D02*
X464970Y777400D01*
G01D02*
X464210Y777000D01*
G01D02*
X463490Y776520D01*
G01D02*
X462820Y775980D01*
G01D02*
X462200Y775380D01*
G01D02*
X461650Y774730D01*
G01D02*
X461150Y774020D01*
G01D02*
X460720Y773280D01*
G01D02*
X460360Y772490D01*
G01D02*
X460070Y771680D01*
G01D02*
X459860Y770850D01*
G01D02*
X459730Y770000D01*
G01D02*
X459680Y769140D01*
G01D02*
X459710Y768280D01*
G01D02*
X459810Y767420D01*
G01D02*
X460000Y766580D01*
G01D02*
X460260Y765760D01*
G01D02*
X460600Y764970D01*
G01D02*
X461010Y764210D01*
G01D02*
X461480Y763490D01*
G01D02*
X462020Y762820D01*
G01D02*
X462620Y762200D01*
G01D02*
X463280Y761650D01*
G01D02*
X463980Y761150D01*
G01D02*
X464720Y760720D01*
G01D02*
X465510Y760360D01*
G01D02*
X466320Y760070D01*
G01D02*
X467150Y759860D01*
G01D02*
X468010Y759730D01*
G01D02*
X468860Y759680D01*
G01D02*
X469730Y759710D01*
G01D02*
X470580Y759810D01*
G01D02*
X471420Y760000D01*
G01D02*
X472240Y760260D01*
G01D02*
X473030Y760600D01*
G01D02*
X473790Y761010D01*
G01D02*
X474510Y761480D01*
G01D02*
X475180Y762020D01*
G01D02*
X475800Y762620D01*
G01D02*
X476360Y763280D01*
G01D02*
X476850Y763980D01*
G01D02*
X477280Y764720D01*
G01D02*
X477740Y765760D01*
G01D02*
Y714240D01*
G01D02*
X477400Y715030D01*
G01D02*
X477000Y715790D01*
G01D02*
X476520Y716510D01*
G01D02*
X475980Y717180D01*
G01D02*
X475380Y717800D01*
G01D02*
X474730Y718350D01*
G01D02*
X474020Y718850D01*
G01D02*
X473280Y719280D01*
G01D02*
X472490Y719640D01*
G01D02*
X471680Y719930D01*
G01D02*
X470850Y720140D01*
G01D02*
X470000Y720270D01*
G01D02*
X469140Y720320D01*
G01D02*
X468280Y720290D01*
G01D02*
X467420Y720190D01*
G01D02*
X466580Y720000D01*
G01D02*
X465760Y719740D01*
G01D02*
X464970Y719400D01*
G01D02*
X464210Y718990D01*
G01D02*
X463490Y718520D01*
G01D02*
X462820Y717980D01*
G01D02*
X462200Y717380D01*
G01D02*
X461650Y716720D01*
G01D02*
X461150Y716020D01*
G01D02*
X460720Y715280D01*
G01D02*
X460360Y714490D01*
G01D02*
X460070Y713680D01*
G01D02*
X459860Y712850D01*
G01D02*
X459730Y711990D01*
G01D02*
X459680Y711140D01*
G01D02*
X459710Y710270D01*
G01D02*
X459810Y709420D01*
G01D02*
X460000Y708580D01*
G01D02*
X460260Y707760D01*
G01D02*
X460600Y706970D01*
G01D02*
X461010Y706210D01*
G01D02*
X461480Y705490D01*
G01D02*
X462020Y704820D01*
G01D02*
X462620Y704200D01*
G01D02*
X463280Y703640D01*
G01D02*
X463980Y703150D01*
G01D02*
X464720Y702720D01*
G01D02*
X465760Y702260D01*
G01D02*
X414240D01*
G01X448800Y734610D02*
X450350Y733060D01*
G01D02*
X450750Y733600D01*
G01D02*
X451220Y734090D01*
G01D02*
X451740Y734510D01*
G01D02*
X452550Y735000D01*
G01D02*
X451970Y735330D01*
G01D02*
X451430Y735730D01*
G01D02*
X450940Y736190D01*
G01D02*
X450510Y736710D01*
G01D02*
X450140Y737280D01*
G01D02*
X449850Y737880D01*
G01D02*
X449630Y738520D01*
G01D02*
X449490Y739180D01*
G01D02*
X449440Y739850D01*
G01D02*
X449460Y740520D01*
G01D02*
X449560Y741180D01*
G01D02*
X449740Y741830D01*
G01D02*
X450000Y742450D01*
G01D02*
X450330Y743040D01*
G01D02*
X450730Y743580D01*
G01D02*
X451190Y744060D01*
G01D02*
X451710Y744490D01*
G01D02*
X452550Y745000D01*
G01D02*
X451970Y745330D01*
G01D02*
X451430Y745730D01*
G01D02*
X450940Y746190D01*
G01D02*
X450510Y746710D01*
G01D02*
X450140Y747280D01*
G01D02*
X449850Y747880D01*
G01D02*
X449630Y748520D01*
G01D02*
X449490Y749180D01*
G01D02*
X449440Y749850D01*
G01D02*
X449460Y750520D01*
G01D02*
X449560Y751180D01*
G01D02*
X449740Y751830D01*
G01D02*
X450000Y752450D01*
G01D02*
X450330Y753040D01*
G01D02*
X450730Y753580D01*
G01D02*
X451190Y754060D01*
G01D02*
X451710Y754490D01*
G01D02*
X452550Y755000D01*
G01D02*
X451960Y755330D01*
G01D02*
X451420Y755730D01*
G01D02*
X450940Y756190D01*
G01D02*
X450510Y756710D01*
G01D02*
X450140Y757280D01*
G01D02*
X449850Y757880D01*
G01D02*
X449630Y758520D01*
G01D02*
X449490Y759180D01*
G01D02*
X449430Y759850D01*
G01D02*
X449460Y760520D01*
G01D02*
X449560Y761180D01*
G01D02*
X449740Y761830D01*
G01D02*
X450000Y762450D01*
G01D02*
X450330Y763040D01*
G01D02*
X450730Y763580D01*
G01D02*
X451190Y764070D01*
G01D02*
X451710Y764490D01*
G01D02*
X452280Y764860D01*
G01D02*
X452880Y765150D01*
G01D02*
X453520Y765370D01*
G01D02*
X454180Y765510D01*
G01D02*
X454850Y765570D01*
G01D02*
X455520Y765550D01*
G01D02*
X456180Y765440D01*
G01D02*
X456830Y765260D01*
G01D02*
X457450Y765000D01*
G01D02*
X458040Y764670D01*
G01D02*
X458580Y764270D01*
G01D02*
X459060Y763810D01*
G01D02*
X459490Y763290D01*
G01D02*
X459860Y762720D01*
G01D02*
X460150Y762120D01*
G01D02*
X460370Y761480D01*
G01D02*
X460510Y760820D01*
G01D02*
X460570Y760160D01*
G01D02*
X460540Y759480D01*
G01D02*
X460440Y758820D01*
G01D02*
X460260Y758170D01*
G01D02*
X460000Y757550D01*
G01D02*
X459670Y756970D01*
G01D02*
X459270Y756420D01*
G01D02*
X458810Y755940D01*
G01D02*
X458290Y755510D01*
G01D02*
X457450Y755000D01*
G01D02*
X458030Y754670D01*
G01D02*
X458570Y754270D01*
G01D02*
X459060Y753810D01*
G01D02*
X459490Y753290D01*
G01D02*
X459860Y752720D01*
G01D02*
X460150Y752120D01*
G01D02*
X460370Y751480D01*
G01D02*
X460510Y750820D01*
G01D02*
X460560Y750150D01*
G01D02*
X460540Y749480D01*
G01D02*
X460440Y748820D01*
G01D02*
X460260Y748170D01*
G01D02*
X460000Y747550D01*
G01D02*
X459670Y746960D01*
G01D02*
X459270Y746420D01*
G01D02*
X458810Y745940D01*
G01D02*
X458290Y745510D01*
G01D02*
X457450Y745000D01*
G01D02*
X458030Y744670D01*
G01D02*
X458570Y744270D01*
G01D02*
X459060Y743810D01*
G01D02*
X459490Y743290D01*
G01D02*
X459860Y742720D01*
G01D02*
X460150Y742120D01*
G01D02*
X460370Y741480D01*
G01D02*
X460510Y740820D01*
G01D02*
X460560Y740150D01*
G01D02*
X460540Y739480D01*
G01D02*
X460440Y738820D01*
G01D02*
X460260Y738170D01*
G01D02*
X460000Y737550D01*
G01D02*
X459670Y736960D01*
G01D02*
X459270Y736420D01*
G01D02*
X458810Y735940D01*
G01D02*
X458290Y735510D01*
G01D02*
X457450Y735000D01*
G01D02*
X458030Y734670D01*
G01D02*
X458570Y734270D01*
G01D02*
X459060Y733810D01*
G01D02*
X459490Y733290D01*
G01D02*
X459860Y732720D01*
G01D02*
X460150Y732120D01*
G01D02*
X460370Y731480D01*
G01D02*
X460510Y730820D01*
G01D02*
X460560Y730150D01*
G01D02*
X460540Y729480D01*
G01D02*
X460440Y728820D01*
G01D02*
X460260Y728170D01*
G01D02*
X460000Y727550D01*
G01D02*
X459670Y726960D01*
G01D02*
X459270Y726420D01*
G01D02*
X458810Y725940D01*
G01D02*
X458290Y725510D01*
G01D02*
X457450Y725000D01*
G01D02*
X458040Y724670D01*
G01D02*
X458580Y724270D01*
G01D02*
X459060Y723810D01*
G01D02*
X459490Y723290D01*
G01D02*
X459860Y722720D01*
G01D02*
X460150Y722120D01*
G01D02*
X460370Y721480D01*
G01D02*
X460510Y720820D01*
G01D02*
X460570Y720150D01*
G01D02*
X460540Y719480D01*
G01D02*
X460440Y718820D01*
G01D02*
X460260Y718170D01*
G01D02*
X460000Y717550D01*
G01D02*
X459670Y716960D01*
G01D02*
X459270Y716420D01*
G01D02*
X458810Y715930D01*
G01D02*
X458290Y715510D01*
G01D02*
X457720Y715140D01*
G01D02*
X457120Y714850D01*
G01D02*
X456480Y714630D01*
G01D02*
X455820Y714490D01*
G01D02*
X455150Y714430D01*
G01D02*
X454480Y714450D01*
G01D02*
X453820Y714560D01*
G01D02*
X453170Y714740D01*
G01D02*
X452550Y715000D01*
G01D02*
X451960Y715330D01*
G01D02*
X451420Y715730D01*
G01D02*
X450940Y716190D01*
G01D02*
X450510Y716710D01*
G01D02*
X450140Y717280D01*
G01D02*
X449850Y717880D01*
G01D02*
X449630Y718520D01*
G01D02*
X449490Y719180D01*
G01D02*
X449430Y719840D01*
G01D02*
X449460Y720520D01*
G01D02*
X449560Y721180D01*
G01D02*
X449740Y721830D01*
G01D02*
X450000Y722450D01*
G01D02*
X450330Y723030D01*
G01D02*
X450730Y723580D01*
G01D02*
X451190Y724060D01*
G01D02*
X451710Y724490D01*
G01D02*
X452550Y725000D01*
G01D02*
X451960Y725330D01*
G01D02*
X451420Y725730D01*
G01D02*
X450750Y726400D01*
G01D02*
X450560Y726010D01*
G01D02*
X450200Y725560D01*
G01D02*
X449660Y725010D01*
G01D02*
Y722750D01*
G01D02*
X449620Y722310D01*
G01D02*
X449500Y721890D01*
G01D02*
X449300Y721490D01*
G01D02*
X448950Y721050D01*
G01D02*
X445500Y717590D01*
G01D02*
X430020D01*
G01D02*
X429690Y717000D01*
G01D02*
X429300Y716460D01*
G01D02*
X428840Y715960D01*
G01D02*
X428320Y715530D01*
G01D02*
X427760Y715160D01*
G01D02*
X427160Y714870D01*
G01D02*
X426520Y714640D01*
G01D02*
X425870Y714500D01*
G01D02*
X425200Y714430D01*
G01D02*
X424530Y714450D01*
G01D02*
X423860Y714550D01*
G01D02*
X423210Y714720D01*
G01D02*
X422590Y714980D01*
G01D02*
X422000Y715310D01*
G01D02*
X421460Y715700D01*
G01D02*
X420970Y716160D01*
G01D02*
X420530Y716670D01*
G01D02*
X420160Y717240D01*
G01D02*
X419870Y717840D01*
G01D02*
X419640Y718470D01*
G01D02*
X419500Y719130D01*
G01D02*
X419430Y719800D01*
G01D02*
X419450Y720470D01*
G01D02*
X419550Y721140D01*
G01D02*
X419720Y721790D01*
G01D02*
X419980Y722410D01*
G01D02*
X420310Y723000D01*
G01D02*
X420700Y723540D01*
G01D02*
X421160Y724030D01*
G01D02*
X421670Y724470D01*
G01D02*
X422240Y724830D01*
G01D02*
X422550Y725000D01*
G01D02*
X421970Y725330D01*
G01D02*
X421430Y725730D01*
G01D02*
X420940Y726190D01*
G01D02*
X420510Y726710D01*
G01D02*
X420140Y727280D01*
G01D02*
X419850Y727880D01*
G01D02*
X419630Y728520D01*
G01D02*
X419490Y729180D01*
G01D02*
X419440Y729850D01*
G01D02*
X419460Y730520D01*
G01D02*
X419560Y731180D01*
G01D02*
X419740Y731830D01*
G01D02*
X420000Y732450D01*
G01D02*
X420330Y733040D01*
G01D02*
X420730Y733580D01*
G01D02*
X421190Y734060D01*
G01D02*
X421710Y734490D01*
G01D02*
X422550Y735000D01*
G01D02*
X421970Y735330D01*
G01D02*
X421430Y735730D01*
G01D02*
X420940Y736190D01*
G01D02*
X420510Y736710D01*
G01D02*
X420140Y737280D01*
G01D02*
X419850Y737880D01*
G01D02*
X419630Y738520D01*
G01D02*
X419490Y739180D01*
G01D02*
X419440Y739850D01*
G01D02*
X419460Y740520D01*
G01D02*
X419560Y741180D01*
G01D02*
X419740Y741830D01*
G01D02*
X420000Y742450D01*
G01D02*
X420330Y743040D01*
G01D02*
X420730Y743580D01*
G01D02*
X421190Y744060D01*
G01D02*
X421710Y744490D01*
G01D02*
X422550Y745000D01*
G01D02*
X421970Y745330D01*
G01D02*
X421430Y745730D01*
G01D02*
X420940Y746190D01*
G01D02*
X420510Y746710D01*
G01D02*
X420140Y747280D01*
G01D02*
X419850Y747880D01*
G01D02*
X419630Y748520D01*
G01D02*
X419490Y749180D01*
G01D02*
X419440Y749850D01*
G01D02*
X419460Y750520D01*
G01D02*
X419560Y751180D01*
G01D02*
X419740Y751830D01*
G01D02*
X420000Y752450D01*
G01D02*
X420330Y753040D01*
G01D02*
X420730Y753580D01*
G01D02*
X421190Y754060D01*
G01D02*
X421710Y754490D01*
G01D02*
X422550Y755000D01*
G01D02*
X421970Y755330D01*
G01D02*
X421430Y755730D01*
G01D02*
X420940Y756190D01*
G01D02*
X420510Y756710D01*
G01D02*
X420140Y757280D01*
G01D02*
X419850Y757880D01*
G01D02*
X419630Y758520D01*
G01D02*
X419490Y759180D01*
G01D02*
X419430Y759850D01*
G01D02*
X419460Y760520D01*
G01D02*
X419560Y761180D01*
G01D02*
X419740Y761830D01*
G01D02*
X420000Y762450D01*
G01D02*
X420330Y763040D01*
G01D02*
X420730Y763580D01*
G01D02*
X421190Y764070D01*
G01D02*
X421710Y764500D01*
G01D02*
X422280Y764860D01*
G01D02*
X422880Y765150D01*
G01D02*
X423520Y765370D01*
G01D02*
X424180Y765510D01*
G01D02*
X424850Y765570D01*
G01D02*
X425520Y765550D01*
G01D02*
X426180Y765440D01*
G01D02*
X426830Y765260D01*
G01D02*
X427450Y765000D01*
G01D02*
X428040Y764670D01*
G01D02*
X428580Y764270D01*
G01D02*
X429070Y763810D01*
G01D02*
X429500Y763290D01*
G01D02*
X429690Y763010D01*
G01D02*
X430000D01*
G01D02*
X432780Y765790D01*
G01D02*
X435440D01*
G01D02*
Y777480D01*
G01D02*
X444560D01*
G01D02*
Y765790D01*
G01D02*
X447220D01*
G01D02*
X449260Y763750D01*
G01D02*
Y747000D01*
G01D02*
X447430Y745170D01*
G01D02*
X447060Y744860D01*
G01D02*
X446650Y744610D01*
G01D02*
X446110Y744400D01*
G01D02*
Y743890D01*
G01D02*
X444480D01*
G01D02*
Y738940D01*
G01D02*
X448800D01*
G01D02*
Y734610D01*
G01X402260Y772240D02*
Y775840D01*
G01D02*
X404160Y777740D01*
G01D02*
X407760D01*
G01D02*
X406970Y777400D01*
G01D02*
X406210Y777000D01*
G01D02*
X405490Y776520D01*
G01D02*
X404820Y775980D01*
G01D02*
X404200Y775380D01*
G01D02*
X403640Y774730D01*
G01D02*
X403150Y774020D01*
G01D02*
X402720Y773280D01*
G01D02*
X402260Y772240D01*
G01X440000Y762780D02*
X445970D01*
X446250Y762500D01*
Y748250D01*
X445300Y747300D01*
G01X433890Y750410D02*
X431540Y752760D01*
G01D02*
X429840D01*
G01D02*
X429480Y753320D01*
G01D02*
X429040Y753830D01*
G01D02*
X428550Y754290D01*
G01D02*
X428010Y754690D01*
G01D02*
X427450Y755000D01*
G01D02*
X428040Y755340D01*
G01D02*
X428580Y755740D01*
G01D02*
X429070Y756200D01*
G01D02*
X429500Y756720D01*
G01D02*
X429690Y756990D01*
G01D02*
X432500D01*
G01D02*
X435280Y759770D01*
G01D02*
X435440D01*
G01D02*
Y757520D01*
G01D02*
X443240D01*
G01D02*
Y756110D01*
G01D02*
X433890D01*
G01D02*
Y750410D01*
G01X429580Y733170D02*
X429170Y733700D01*
G01D02*
X428690Y734170D01*
G01D02*
X428160Y734580D01*
G01D02*
X427450Y735000D01*
G01D02*
X428030Y735330D01*
G01D02*
X428570Y735730D01*
G01D02*
X429060Y736190D01*
G01D02*
X429490Y736710D01*
G01D02*
X429860Y737280D01*
G01D02*
X430150Y737880D01*
G01D02*
X430370Y738520D01*
G01D02*
X430510Y739180D01*
G01D02*
X430560Y739850D01*
G01D02*
X430540Y740520D01*
G01D02*
X430440Y741180D01*
G01D02*
X430260Y741830D01*
G01D02*
X430000Y742450D01*
G01D02*
X429670Y743040D01*
G01D02*
X429270Y743580D01*
G01D02*
X428810Y744060D01*
G01D02*
X428290Y744490D01*
G01D02*
X427450Y745000D01*
G01D02*
X428030Y745330D01*
G01D02*
X428570Y745730D01*
G01D02*
X429060Y746190D01*
G01D02*
X429610Y746880D01*
G01D02*
X431960Y744540D01*
G01D02*
X433890D01*
G01D02*
Y743890D01*
G01D02*
X434340D01*
G01D02*
X432420Y741970D01*
G01D02*
Y738940D01*
G01D02*
X431200D01*
G01D02*
Y733510D01*
G01D02*
X430700Y733500D01*
G01D02*
X430220Y733420D01*
G01D02*
X429580Y733170D01*
G01X438660Y730970D02*
Y734030D01*
G01D02*
X441340D01*
G01D02*
Y730970D01*
G01D02*
X438660D01*
G01X434000Y724410D02*
X432350Y726060D01*
G01D02*
X434790D01*
G01D02*
X434490Y725680D01*
G01D02*
X434260Y725260D01*
G01D02*
X434090Y724800D01*
G01D02*
X434010Y724410D01*
G01D02*
X434000D01*
G01X425000Y760000D02*
X431250D01*
X434030Y762780D01*
X440000D01*
G01X472240Y702260D02*
X473030Y702600D01*
G01D02*
X473790Y703000D01*
G01D02*
X474510Y703480D01*
G01D02*
X475180Y704020D01*
G01D02*
X475800Y704620D01*
G01D02*
X476360Y705270D01*
G01D02*
X476850Y705980D01*
G01D02*
X477280Y706720D01*
G01D02*
X477740Y707760D01*
G01D02*
Y704160D01*
G01D02*
X475840Y702260D01*
G01D02*
X472240D01*
G01X477740Y772240D02*
X477400Y773030D01*
G01D02*
X477000Y773790D01*
G01D02*
X476520Y774510D01*
G01D02*
X475980Y775180D01*
G01D02*
X475380Y775800D01*
G01D02*
X474730Y776360D01*
G01D02*
X474020Y776850D01*
G01D02*
X473280Y777280D01*
G01D02*
X472240Y777740D01*
G01D02*
X475840D01*
G01D02*
X477740Y775840D01*
G01D02*
Y772240D01*
X410000Y725000D03*
Y735000D03*
Y743750D03*
Y755000D03*
X432500Y716250D03*
X447500D03*
X422500Y711250D03*
X431000Y730500D03*
X437000Y724000D03*
X440000D03*
X443000D03*
X445000Y743750D03*
X430000Y735000D03*
Y745000D03*
X448750Y740000D03*
X433750Y725000D03*
X430000Y755000D03*
X437500Y756500D03*
X435000Y772500D03*
X445000D03*
X442500Y756500D03*
X450000Y755000D03*
X457500Y711250D03*
X472500Y725000D03*
Y735000D03*
Y745000D03*
Y755000D03*
G54D22*
G01X437500Y747300D02*
X433100D01*
X430400Y750000D01*
X425000D01*
G01X445300Y747300D02*
X442500D01*
G01X437500Y752700D02*
Y756500D01*
G01X442500Y752700D02*
Y756500D01*
G54D13*
X434930Y736440D03*
Y734470D03*
Y732500D03*
Y730530D03*
Y728560D03*
X445070D03*
Y730530D03*
Y732500D03*
Y734470D03*
Y736440D03*
G54D14*
X438030Y727480D03*
X440000D03*
X441970D03*
Y737520D03*
X440000D03*
X438030D03*
G54D15*
X442500Y747300D03*
X437500D03*
X442500Y752700D03*
X437500D03*
G54D16*
X440000Y772220D03*
Y762780D03*
G54D17*
G01X367500Y637500D02*
Y625000D01*
X373700D01*
G01X379120D02*
X383000Y637500D01*
X386880Y625000D01*
G01X385480Y629370D02*
X380520D01*
G01X395400Y625000D02*
Y630620D01*
X392300Y637500D01*
G01X398500D02*
X395400Y630620D01*
G01X410900Y625000D02*
X404700D01*
Y637500D01*
X410900D01*
G01X408420Y631460D02*
X404700D01*
G01X417100Y625000D02*
Y637500D01*
X420970D01*
X422210Y636870D01*
X422990Y636040D01*
X423300Y634370D01*
X422990Y632710D01*
X422060Y631670D01*
X420970Y631040D01*
X417100D01*
G01X420970D02*
X423300Y625000D01*
G01X445000D02*
Y637500D01*
X443140Y635000D01*
G01Y625000D02*
X446860D01*
G01X469030Y620830D02*
X467480Y622920D01*
X466700Y625000D01*
Y633330D01*
X467480Y635420D01*
X469030Y637500D01*
G01X482200D02*
Y625000D01*
G01X478640Y637500D02*
X485760D01*
G01X494600Y625000D02*
X493360Y625210D01*
X492280Y626040D01*
X491340Y627290D01*
X490720Y628750D01*
X490410Y630420D01*
Y632080D01*
X490720Y633750D01*
X491340Y635210D01*
X492280Y636460D01*
X493360Y637290D01*
X494600Y637500D01*
X495840Y637290D01*
X496920Y636460D01*
X497860Y635210D01*
X498480Y633750D01*
X498790Y632080D01*
Y630420D01*
X498480Y628750D01*
X497860Y627290D01*
X496920Y626040D01*
X495840Y625210D01*
X494600Y625000D01*
G01X503900D02*
Y637500D01*
X507620D01*
X508860Y636870D01*
X509790Y635420D01*
X510100Y633750D01*
X509790Y632080D01*
X509010Y630830D01*
X507620Y630210D01*
X503900D01*
G01X520170Y620830D02*
X521720Y622920D01*
X522500Y625000D01*
Y633330D01*
X521720Y635420D01*
X520170Y637500D01*
G01X397720Y650000D02*
X401600Y662500D01*
X405480Y650000D01*
G01X404080Y654370D02*
X399120D01*
G01X410590Y650000D02*
Y662500D01*
X413690D01*
X414930Y661870D01*
X415860Y661040D01*
X416640Y659790D01*
X417260Y658330D01*
X417410Y656250D01*
X417260Y654170D01*
X416640Y652710D01*
X415860Y651460D01*
X414930Y650620D01*
X413690Y650000D01*
X410590D01*
G01X423140D02*
X429660Y662500D01*
G01X423140D02*
X429660Y650000D01*
G01X435700Y662500D02*
Y650000D01*
X441900D01*
G01X447790Y652500D02*
X448720Y651040D01*
X449960Y650210D01*
X451360Y650000D01*
X452600Y650210D01*
X453840Y651250D01*
X454610Y652500D01*
X454760Y653750D01*
X454460Y655210D01*
X453370Y656250D01*
X452280Y656670D01*
X450890D01*
G01X452280D02*
X453210Y657290D01*
X453990Y658330D01*
X454300Y659580D01*
X453990Y660830D01*
X453210Y661870D01*
X451820Y662500D01*
X450430Y662290D01*
X449030Y661460D01*
G01X460650Y655210D02*
X461740Y656670D01*
X462670Y657500D01*
X463910Y657920D01*
X465000Y657500D01*
X465770Y656670D01*
X466390Y655420D01*
X466550Y653960D01*
X466390Y652710D01*
X465770Y651460D01*
X464840Y650420D01*
X463760Y650000D01*
X462520Y650420D01*
X461430Y651670D01*
X460810Y653540D01*
X460650Y655620D01*
X460960Y658330D01*
X461430Y659790D01*
X462200Y661250D01*
X463290Y662290D01*
X464370Y662500D01*
X465460Y662080D01*
X466240Y661040D01*
G01X473050Y660420D02*
X473990Y661670D01*
X475070Y662290D01*
X476310Y662500D01*
X477860Y662080D01*
X478950Y661040D01*
X479260Y659790D01*
X479100Y658540D01*
X478480Y657500D01*
X475380Y655420D01*
X473990Y653960D01*
X473050Y651870D01*
X472740Y650000D01*
X479260D01*
G01X485450Y662500D02*
X491350D01*
X485450Y650000D01*
X491350D01*
G54D18*
G01X402270Y704770D02*
X403270Y705770D01*
G01X403590Y702840D02*
X404790Y704040D01*
G01X406270Y702260D02*
X406720Y702710D01*
G01X403070Y706100D02*
X402270Y706900D01*
G01X406900Y702270D02*
X406100Y703070D01*
G01X415890Y776940D02*
X416690Y777740D01*
G01X402260Y763310D02*
X403060Y764110D01*
G01X417700Y775490D02*
X419950Y777740D01*
G01X402260Y760060D02*
X404510Y762300D01*
G01X419090Y773630D02*
X423200Y777740D01*
G01X402270Y756810D02*
X406370Y760910D01*
G01X420030Y771320D02*
X426450Y777740D01*
G01X402270Y753560D02*
X408680Y759970D01*
G01X420300Y768340D02*
X429700Y777740D01*
G01X402260Y750300D02*
X411660Y759700D01*
G01X402260Y747050D02*
X432950Y777740D01*
G01X435950Y777480D02*
X436210Y777740D01*
G01X423940Y765470D02*
X435440Y776970D01*
G01X402270Y743800D02*
X419530Y761060D01*
G01X439210Y777490D02*
X439460Y777740D01*
G01X426950Y765230D02*
X435440Y773720D01*
G01X402260Y740540D02*
X419780Y758060D01*
G01X442460Y777490D02*
X442710Y777740D01*
G01X428930Y763960D02*
X435440Y770470D01*
G01X402260Y737290D02*
X421040Y756070D01*
G01X444570Y776340D02*
X445970Y777740D01*
G01X434020Y765790D02*
X435440Y767210D01*
G01X402270Y734040D02*
X419600Y751380D01*
G01X444570Y773090D02*
X449220Y777740D01*
G01X402270Y730790D02*
X419710Y748240D01*
G01X444560Y769830D02*
X452470Y777740D01*
G01X402260Y727530D02*
X420930Y746200D01*
G01X444560Y766580D02*
X455720Y777740D01*
G01X402260Y724280D02*
X419700Y741720D01*
G01X447030Y765790D02*
X458980Y777740D01*
G01X402270Y721030D02*
X419660Y738420D01*
G01X448750Y764260D02*
X462230Y777740D01*
G01X402270Y717780D02*
X420810Y736320D01*
G01X465300Y777560D02*
X465480Y777740D01*
G01X452900Y765160D02*
X460440Y772700D01*
G01X449260Y761520D02*
X449840Y762100D01*
G01X407300Y719560D02*
X419840Y732100D01*
G01X402260Y714520D02*
X402440Y714700D01*
G01X456390Y765400D02*
X459680Y768690D01*
G01X449260Y758270D02*
X449600Y758610D01*
G01X411310Y720320D02*
X419600Y728610D01*
G01X458550Y764300D02*
X460190Y765940D01*
G01X449270Y755020D02*
X450700Y756450D01*
G01X414060Y719810D02*
X420700Y726450D01*
G01X459990Y762490D02*
X461270Y763770D01*
G01X452450Y754950D02*
X452510Y755010D01*
G01X449270Y751770D02*
X450050Y752550D01*
G01X422450Y724950D02*
X422510Y725010D01*
G01X416230Y718730D02*
X420040Y722540D01*
G01X460570Y759820D02*
X462790Y762040D01*
G01X449260Y748510D02*
X449560Y748810D01*
G01X444480Y743730D02*
X444640Y743890D01*
G01X417960Y717210D02*
X419550Y718800D01*
G01X458410Y754410D02*
X464720Y760720D01*
G01X444490Y740480D02*
X450590Y746590D01*
G01X419290Y715280D02*
X420590Y716590D01*
G01X459910Y752650D02*
X467120Y759860D01*
G01X451840Y744590D02*
X452350Y745100D01*
G01X446200Y738940D02*
X450410Y743160D01*
G01X420140Y712880D02*
X422350Y715090D01*
G01X460570Y750060D02*
X470270Y759760D01*
G01X448800Y738290D02*
X449520Y739010D01*
G01X420240Y709730D02*
X424940Y714430D01*
G01X458270Y744510D02*
X477740Y763980D01*
G01X448800Y735040D02*
X450490Y736730D01*
G01X416030Y702270D02*
X431350Y717590D01*
G01X459820Y742800D02*
X477740Y760720D01*
G01X450220Y733200D02*
X452200Y735180D01*
G01X419280Y702260D02*
X434610Y717590D01*
G01X460560Y740290D02*
X477740Y757470D01*
G01X422530Y702260D02*
X437860Y717590D01*
G01X458130Y734610D02*
X477740Y754220D01*
G01X425790Y702270D02*
X441110Y717590D01*
G01X459730Y732950D02*
X477740Y750960D01*
G01X449660Y722890D02*
X452050Y725270D01*
G01X429040Y702270D02*
X444360Y717590D01*
G01X460550Y730520D02*
X477740Y747710D01*
G01X432290Y702260D02*
X449460Y719430D01*
G01X457990Y724710D02*
X477740Y744460D01*
G01X435540Y702260D02*
X450290Y717010D01*
G01X459630Y723100D02*
X477740Y741210D01*
G01X438800Y702270D02*
X451900Y715370D01*
G01X460520Y720740D02*
X477740Y737960D01*
G01X442050Y702270D02*
X454260Y714470D01*
G01X445300Y702260D02*
X477740Y734700D01*
G01X466170Y719880D02*
X477740Y731450D01*
G01X448560Y702270D02*
X460120Y713830D01*
G01X469830Y720290D02*
X477740Y728200D01*
G01X451810Y702270D02*
X459710Y710170D01*
G01X472460Y719660D02*
X477740Y724940D01*
G01X455060Y702260D02*
X460340Y707540D01*
G01X474550Y718500D02*
X477740Y721690D01*
G01X458310Y702260D02*
X461500Y705450D01*
G01X476210Y716910D02*
X477740Y718440D01*
G01X461570Y702270D02*
X463090Y703790D01*
G01X477470Y714910D02*
X477740Y715180D01*
G01X464820Y702270D02*
X465090Y702530D01*
G01X403050Y715880D02*
X402270Y716660D01*
G01X416660Y702270D02*
X415880Y703050D01*
G01X404490Y717680D02*
X402260Y719910D01*
G01X419910Y702270D02*
X417680Y704490D01*
G01X406350Y719080D02*
X402260Y723170D01*
G01X423170Y702260D02*
X419080Y706350D01*
G01X408660Y720030D02*
X402270Y726420D01*
G01X426420Y702260D02*
X420030Y708660D01*
G01X411640Y720300D02*
X402270Y729670D01*
G01X429670Y702270D02*
X420300Y711640D01*
G01X432920Y702270D02*
X402270Y732920D01*
G01X419530Y718910D02*
X402260Y736180D01*
G01X436180Y702260D02*
X423910Y714530D01*
G01X419770Y721920D02*
X402260Y739430D01*
G01X439430Y702260D02*
X426920Y714770D01*
G01X421030Y723920D02*
X402270Y742680D01*
G01X442680Y702270D02*
X428920Y716030D01*
G01X419610Y728590D02*
X402270Y745930D01*
G01X445930Y702270D02*
X430610Y717590D01*
G01X419710Y731740D02*
X402260Y749190D01*
G01X449190Y702260D02*
X433860Y717590D01*
G01X420920Y733790D02*
X402270Y752440D01*
G01X452440Y702270D02*
X437120Y717590D01*
G01X419710Y738240D02*
X402260Y755690D01*
G01X455690Y702270D02*
X440370Y717590D01*
G01X419650Y741560D02*
X402260Y758950D01*
G01X458950Y702260D02*
X443620Y717590D01*
G01X420800Y743660D02*
X402260Y762200D01*
G01X462200Y702260D02*
X446190Y718270D01*
G01X402460Y765250D02*
X402260Y765450D01*
G01X419860Y747860D02*
X407240Y760470D01*
G01X449860Y717850D02*
X447810Y719900D01*
G01X460460Y707250D02*
X452860Y714850D01*
G01X465450Y702270D02*
X465240Y702470D01*
G01X419600Y751370D02*
X411290Y759680D01*
G01X449600Y721370D02*
X449370Y721600D01*
G01X459680Y711290D02*
X456370Y714600D01*
G01X420690Y753530D02*
X414040Y760180D01*
G01X450690Y723530D02*
X449660Y724560D01*
G01X460180Y714040D02*
X458530Y715690D01*
G01X420070Y757400D02*
X416210Y761260D01*
G01X422490Y754980D02*
X422400Y755070D01*
G01X452490Y724980D02*
X452400Y725070D01*
G01X461260Y716210D02*
X459980Y717490D01*
G01X419550Y761180D02*
X417950Y762780D01*
G01X462780Y717950D02*
X460570Y720160D01*
G01X420580Y763400D02*
X419280Y764700D01*
G01X445030Y738950D02*
X444490Y739490D01*
G01X450580Y733400D02*
X448810Y735170D01*
G01X464700Y719280D02*
X458400Y725580D01*
G01X422330Y764900D02*
X420130Y767100D01*
G01X448290Y738940D02*
X444480Y742750D01*
G01X450470Y736760D02*
X448800Y738430D01*
G01X452340Y734900D02*
X451760Y735470D01*
G01X467100Y720130D02*
X459900Y727340D01*
G01X424910Y765580D02*
X420240Y770250D01*
G01X449510Y740970D02*
X446110Y744370D01*
G01X470240Y720240D02*
X460570Y729910D01*
G01X430360Y763380D02*
X416000Y777740D01*
G01X450480Y743260D02*
X448000Y745740D01*
G01X477740Y716000D02*
X458260Y735480D01*
G01X431990Y765000D02*
X419250Y777740D01*
G01X452180Y744810D02*
X449260Y747730D01*
G01X477740Y719250D02*
X459810Y737180D01*
G01X434450Y765790D02*
X422500Y777740D01*
G01X449480Y750760D02*
X449260Y750980D01*
G01X477740Y722500D02*
X460560Y739680D01*
G01X435440Y768060D02*
X425760Y777740D01*
G01X450380Y753120D02*
X449270Y754230D01*
G01X477740Y725760D02*
X458120Y745380D01*
G01X435440Y771310D02*
X429010Y777740D01*
G01X452030Y754720D02*
X449270Y757480D01*
G01X477740Y729010D02*
X459720Y747030D01*
G01X435440Y774560D02*
X432260Y777740D01*
G01X449450Y760550D02*
X449260Y760740D01*
G01X477740Y732260D02*
X460550Y749460D01*
G01X435770Y777480D02*
X435510Y777740D01*
G01X450280Y762970D02*
X444560Y768690D01*
G01X477740Y735510D02*
X457970Y755280D01*
G01X439020Y777490D02*
X438770Y777740D01*
G01X451880Y764620D02*
X444560Y771940D01*
G01X477740Y738770D02*
X459620Y756890D01*
G01X442270Y777490D02*
X442020Y777740D01*
G01X454240Y765520D02*
X444570Y775190D01*
G01X477740Y742020D02*
X460520Y759240D01*
G01X477740Y745270D02*
X445270Y777740D01*
G01X460130Y766130D02*
X448520Y777740D01*
G01X477740Y748520D02*
X466130Y760130D01*
G01X459710Y769810D02*
X451780Y777740D01*
G01X477740Y751780D02*
X469810Y759710D01*
G01X460330Y772440D02*
X455030Y777740D01*
G01X477740Y755030D02*
X472440Y760330D01*
G01X461490Y774530D02*
X458280Y777740D01*
G01X477740Y758280D02*
X474530Y761490D01*
G01X463080Y776200D02*
X461540Y777740D01*
G01X477740Y761540D02*
X476200Y763080D01*
G01X465070Y777460D02*
X464790Y777740D01*
G01X477740Y764790D02*
X477460Y765070D01*
G01X406160Y776970D02*
X406930Y777740D01*
G01X402260Y773070D02*
X403030Y773840D01*
G01X403260Y774210D02*
X402260Y775210D01*
G01X404780Y775950D02*
X403580Y777150D01*
G01X406700Y777280D02*
X406240Y777740D01*
G01X425000Y720000D02*
X444500D01*
X447250Y722750D01*
Y726010D01*
X448500Y727260D01*
Y731500D01*
X447500Y732500D01*
X445070D01*
G01X434930Y730530D02*
X431030D01*
X431000Y730500D01*
G01X437000Y724000D02*
X438030Y725030D01*
Y727480D01*
G01X440000D02*
Y724000D01*
G01X445070Y728560D02*
Y723100D01*
X443970Y722000D01*
X433000D01*
X425000Y730000D01*
G01X443000Y724000D02*
X441970Y725030D01*
Y727480D01*
G01X445070Y736440D02*
X448940D01*
G01D02*
X450000Y737500D01*
G01Y735000D02*
X449470Y734470D01*
G01D02*
X445070D01*
G01Y739930D02*
X445000Y740000D01*
G01X445070Y738330D02*
Y739930D01*
G01X441970Y734470D02*
X440000Y732500D01*
G01X438030Y734470D02*
Y737520D01*
G01X440000Y732500D02*
X438030Y734470D01*
G01X445070D02*
X441970D01*
G01X428810Y754080D02*
X431720Y756990D01*
G01X434100Y756120D02*
X435500Y757520D01*
G01X430750Y752770D02*
X433890Y755910D01*
G01X437350Y756110D02*
X438760Y757520D01*
G01X432770Y751530D02*
X433890Y752650D01*
G01X440600Y756110D02*
X442010Y757520D01*
G01X431210Y752770D02*
X428400Y755580D01*
G01X433890Y753340D02*
X430240Y756990D01*
G01X434370Y756110D02*
X433000Y757480D01*
G01X435440Y758300D02*
X434630Y759110D01*
G01X437620Y756120D02*
X436220Y757520D01*
G01X440880Y756110D02*
X439470Y757520D01*
G01X443240Y757000D02*
X442720Y757520D01*
G01X428680Y744190D02*
X430490Y746000D01*
G01X430070Y742320D02*
X432290Y744540D01*
G01X430550Y739560D02*
X432420Y741430D01*
G01X428550Y734300D02*
X431200Y736950D01*
G01X431020Y733520D02*
X431200Y733700D01*
G01X430940Y733520D02*
X428660Y735800D01*
G01X431200Y736520D02*
X430060Y737660D01*
G01X432020Y738950D02*
X430560Y740410D01*
G01X432420Y741800D02*
X428530Y745690D01*
G01X433960Y743510D02*
X432930Y744540D01*
G01X438670Y731410D02*
X441290Y734030D01*
G01X439990Y730980D02*
X438670Y732300D01*
G01X441340Y732880D02*
X440190Y734030D01*
G01X432840Y725580D02*
X433320Y726060D01*
G01X474580Y702270D02*
X477740Y705430D01*
G01X475210Y702260D02*
X474210Y703260D01*
G01X477150Y703580D02*
X475950Y704780D01*
G01X477740Y706240D02*
X477280Y706700D01*
G01X474230Y776730D02*
X475240Y777740D01*
G01X475960Y775210D02*
X477160Y776410D01*
G01X477290Y773280D02*
X477740Y773730D01*
G01Y774550D02*
X474550Y777740D01*
G54D19*
G01X434930Y736440D02*
Y740930D01*
X437500Y743500D01*
Y747300D01*
G01X441970Y737520D02*
Y746770D01*
X442500Y747300D01*
M02*
