M48
INCH,TZ
T01C.01
T02C.043
T03C.12
;LEADER: 12 
;HEADER: 
;CODE  : ASCII 
;FILE  : xl362z-1-2.drl for board xl362z.brd ... layers TOP and BOTTOM
;T01 Holesize 1. = 10.000000 Tolerance = +0.000000/-0.000000 PLATED MILS Quantity = 27
;T02 Holesize 2. = 43.000000 Tolerance = +0.000000/-0.000000 PLATED MILS Quantity = 10
;T03 Holesize 3. = 120.000000 Tolerance = +0.000000/-0.000000 PLATED MILS Quantity = 4
%
G90
T01
X43100Y73050
X43700Y72400
R02X300
X43250Y71625
X45750Y71125
X41000Y72500
X41000Y73500
X44500Y74375
X43000Y73500
X43000Y74500
X47250Y72500
X41000Y75500
X43000Y75500
X43750Y75650
X47250Y75500
X44875Y74000
X43375Y72500
X47250Y73500
X47250Y74500
X43500Y77250
X44500Y77250
X44250Y75650
X45000Y75500
X44750Y71625
X42250Y71125
X41000Y74375
T02
X42500Y76000
R04Y-1000
X45500Y76000
R04Y-1000
T03
X41100Y71100
X41100Y76900
X46900Y76900
X46900Y71100
M30
